<?xml version="1.0" encoding="UTF-8" standalone="no"?>
<!DOCTYPE svg PUBLIC "-//W3C//DTD SVG 1.1//EN" "http://www.w3.org/Graphics/SVG/1.1/DTD/svg11.dtd">
<svg width="100%" height="100%" viewBox="0 0 2000 2666" version="1.1" xmlns="http://www.w3.org/2000/svg" xmlns:xlink="http://www.w3.org/1999/xlink" xml:space="preserve" xmlns:serif="http://www.serif.com/" style="fill-rule:evenodd;clip-rule:evenodd;stroke-linejoin:round;stroke-miterlimit:2;">
    <g>
        <path d="M988.8,2588.3C987.9,2588.1 986.5,2586.8 985.6,2585.5C984.8,2584.3 980.4,2580.6 975.8,2577.4C949.3,2558.8 948.6,2557.9 949.2,2544.1C949.5,2536.9 950.1,2534.4 952.8,2528.9C954.5,2525.2 956,2522 956,2521.7C956,2521.4 950.7,2521 944.2,2520.8C933,2520.5 932.1,2520.3 928.6,2517.7C922.6,2513.1 919.6,2507.7 919.2,2500.6C918.8,2494.9 919,2494.3 921.7,2491.9C924,2489.8 926.7,2488.9 937.5,2487.1C944.7,2485.9 951.6,2484.6 953,2484.4C954.5,2484.1 961.8,2477.6 971,2468.4C979.6,2459.9 987.1,2453 987.7,2453C988.3,2453 989.3,2452.3 990,2451.5C991,2450.3 993.6,2450 1001.6,2450L1011.9,2450L1015.9,2455.8C1021,2463.2 1023.6,2465.5 1035.1,2472.9C1044.6,2478.9 1047,2479.8 1064.1,2483.5C1073.8,2485.5 1076.1,2487.8 1076.8,2495.5C1077.4,2503 1074.9,2509.1 1068.7,2515.7L1063.7,2521L1051.4,2521C1044.6,2521 1039,2521.3 1039,2521.8C1039,2522.2 1039.6,2523.5 1040.4,2524.6C1043.9,2529.6 1046,2537.5 1046,2545.8C1046,2550.4 1045.5,2555.1 1044.9,2556.3C1043.5,2559 1034.9,2568 1033.7,2568C1033.2,2568 1030.2,2570 1027.1,2572.5C1024,2574.9 1018,2579.6 1013.8,2583L1006,2589L998.3,2588.9C994,2588.8 989.7,2588.6 988.8,2588.3Z" style="fill-rule:nonzero;"/>
        <path d="M903.2,2465.9C884.5,2462.8 875,2456.2 868,2441.4C863.4,2431.8 863.1,2431.6 847.4,2430.2C838.2,2429.4 835.3,2428.7 831,2426.4C817.9,2419.3 808.1,2404.3 805.9,2388.1C805.3,2383.7 805,2373.4 805.2,2365.3L805.6,2350.5L810.3,2341.2C812.9,2336.1 816.6,2329.7 818.5,2327.1C820.4,2324.4 822,2321.7 822,2321C822,2320.3 820.3,2317 818.2,2313.6C810.5,2301.4 809.7,2298.9 809.2,2284.1C808.6,2265.3 809.1,2263.9 820.3,2253.4C829,2245.3 837.3,2240.2 844.8,2238.4C846.3,2238 848.3,2237.1 849.2,2236.3C850.3,2235.3 854.9,2234.5 862.7,2233.9C872.7,2233.1 875,2232.5 878.1,2230.5C880,2229.1 882.2,2228 882.8,2228C883.5,2228 885.8,2227.1 888,2226C890.2,2224.9 893,2224 894.3,2224C897.4,2224 915.2,2205.7 922.5,2195.2C933.9,2178.6 935.8,2175.9 943.3,2165.8C955,2150 963.5,2130.1 961.7,2122.8C960.8,2119.2 956.7,2120.2 953.2,2124.8C946.7,2133.3 940.3,2139.3 933.3,2143.1C926.4,2146.9 925.2,2147.2 916.1,2147.7C904.3,2148.4 902.8,2148.1 896.2,2143.5C890.7,2139.7 884,2138.6 884,2141.5C884,2144.9 889.3,2154.6 894,2159.7C900.6,2166.9 903.6,2172.2 905,2179.4C906.4,2186.2 905.8,2191.4 903.4,2194.1C902,2195.7 900.3,2196 893.6,2196C884.1,2195.9 883.1,2195.5 870.9,2187C852.3,2173.9 835.7,2158.8 828.8,2148.5C827,2145.8 823.6,2142.3 821.2,2140.7C818.6,2138.9 816,2136 814.6,2133.1C813.2,2130.5 810.2,2125.9 807.8,2122.9C797.7,2110.4 792,2100.8 786.9,2087.7C785.8,2084.9 783.6,2079.8 782,2076.5C778.5,2069.2 776.4,2062 774.5,2051C773.7,2046.4 771.7,2039.8 770,2036.2C768.3,2032.7 766.1,2026.2 765,2021.9C762.5,2011.6 760,2007.1 752.7,1998.9C741.3,1986.4 737.2,1981.4 734.9,1977.4C731.7,1971.8 729.3,1969.4 723.6,1966C720.8,1964.4 714.9,1960.8 710.5,1958C696.5,1949.3 693.4,1948 685.4,1948C675,1948 672.9,1948.7 666.2,1954.1C658.6,1960.2 651.9,1964 648.5,1964C645.2,1964 642,1969.1 642,1974.3C642,1977.4 641.2,1979 637.3,1983.1L632.5,1988.2L605.5,1987.4L596.5,1982.7C582.3,1975.2 578.1,1971.4 574.3,1962.5C572.5,1958.3 569.7,1953 568.1,1950.7C563.7,1944.2 561.8,1939.2 560.9,1931C560.5,1926.9 559.4,1919.2 558.5,1914C557.3,1906.9 557.1,1901.1 557.6,1891C558.2,1876.5 559.8,1870.1 565.9,1856.8C567.6,1853.1 569,1849.8 569,1849.5C569,1849.1 567.8,1849.7 566.3,1850.7C564.7,1851.7 561.3,1853.6 558.5,1854.8C555.8,1856.1 552.4,1857.7 551,1858.5C541.9,1863.7 536.8,1865.9 532.2,1866.9C524.2,1868.6 500.3,1868.3 494.4,1866.5C491.7,1865.6 483.9,1864.7 477,1864.4C465.3,1863.9 463.8,1864 453,1866.9C446.7,1868.6 439.9,1870.5 437.9,1871C429.1,1873.3 416.9,1882.7 414,1889.4C410.6,1897.6 410.6,1898.8 414.4,1902.6C416.3,1904.5 418.8,1906 420,1906C421.5,1906 425.1,1903.3 430.1,1898.5C434.4,1894.4 438.8,1891 439.8,1891C440.9,1891 442.5,1890.1 443.5,1889C445.2,1887.2 446.6,1887 459.8,1887L474.3,1887L478.5,1891.3C482,1895 483.3,1897.6 487,1908.8L491.3,1921.9L490.2,1934.7C489.4,1944.4 488.6,1948.9 486.7,1953C483.8,1959.7 474.5,1971.4 465,1980.3L458,1987L434.5,1987C421.3,1987 408.8,1986.5 405.8,1985.9C398.3,1984.3 379.4,1974.4 374.3,1969.3C366.4,1961.5 361.5,1953.7 357.7,1942.9C352.4,1927.7 349.9,1915.4 349.3,1900.4C348.5,1881.3 351.1,1868.2 360.2,1844.5L367.1,1826.5L386.3,1807.1C406.7,1786.5 412,1782 415.5,1782C416.7,1782 419.4,1780.5 421.6,1778.6C423.7,1776.8 427,1774.5 428.9,1773.5C430.8,1772.6 434.6,1770 437.3,1767.9C440,1765.7 442.7,1764 443.4,1764C444.1,1764 445.5,1763.1 446.5,1762C447.5,1760.9 449.2,1760 450.2,1760C451.2,1760 455.3,1758.4 459.2,1756.4C466.4,1752.8 476.9,1749 479.8,1749C480.7,1749 483.2,1748.2 485.4,1747.1C487.7,1746.1 493.9,1743.2 499.4,1740.6C505.1,1737.9 510.6,1736 512.6,1736C514.5,1736 517.1,1735.4 518.3,1734.6C519.5,1733.9 522.4,1733 524.8,1732.6C530.1,1731.8 543.3,1727.4 548,1724.9C549.9,1723.9 554.4,1722.1 558,1721C561.6,1719.8 566.1,1717.8 568,1716.5C569.9,1715.2 572.5,1713.9 573.7,1713.6C577.3,1712.5 596.4,1691.9 599.4,1685.7C600.9,1682.7 602.9,1679.5 603.8,1678.7C606.2,1676.6 616.3,1674.8 624,1675.2L630.5,1675.5L634.1,1682.5C636.1,1686.4 639.2,1694.7 641,1701C642.8,1707.3 645.1,1714.3 646.3,1716.5C647.4,1718.7 649,1722.9 649.9,1725.7C653.9,1738.7 675.8,1759 686,1759C689.5,1759 696.2,1752 699.3,1745C700.9,1741.4 703.3,1738.1 706.5,1735.5C709.1,1733.3 715.4,1727.3 720.4,1722.1L729.6,1712.7L735.8,1713.2C744.1,1713.8 747,1716.4 747,1723.1C747,1726.1 746.2,1729.2 745,1731.3C743.9,1733.2 741.9,1737.8 740.6,1741.7L738.2,1748.7L740.9,1752C748.1,1761 761.8,1786.6 762.7,1792.9C763,1795 764.6,1797.9 766.5,1800C771.2,1805 773,1809 776.5,1822.5C781.9,1842.9 784.2,1850.3 787,1857C788.6,1860.6 790.3,1866.4 790.9,1870C792.6,1880.3 794.6,1888.3 796.8,1894.3C800,1902.8 802.7,1914.7 803.4,1923.3C803.8,1927.7 805,1933.4 806,1936.1C807.4,1939.6 808,1943.5 808,1949.4C808,1956.8 808.4,1958.5 811,1963.5C813.9,1969.1 814,1969.5 814,1983.6C814,1996.2 814.2,1998.4 816,2001.2C817.1,2003 818,2006.1 818,2008C818,2009.9 818.9,2013.4 819.9,2015.7C821,2017.9 822.4,2022.4 823,2025.7C824.5,2033.2 827.2,2037.8 835.7,2047C839.4,2051.1 844.1,2057 846.1,2060C859.1,2079.8 859.3,2080.2 860.6,2087C862.1,2095 868,2107 870.4,2107C870.7,2107 871,2105.7 871,2104C871,2102.1 871.5,2101 872.4,2101C873.1,2101 874.3,2100.3 875,2099.5C877.6,2096.4 882.6,2094.9 892.6,2094.3C901.2,2093.8 903.3,2094 905.4,2095.4C906.8,2096.3 908.5,2097 909.3,2097C911.3,2097 916.4,2091.1 919.7,2084.8L922.7,2079.1L919.7,2073.8C915.6,2066.4 914.2,2065.1 910.1,2064.5C901.5,2063.2 890.2,2060.6 886.6,2059.2C882,2057.4 880,2053.4 880,2046.3C880,2041.8 880.4,2041.2 886.1,2035.4L892.1,2029.3L885.8,2025.3C882.3,2023.1 877.9,2020.3 876,2019.2C874.1,2018.1 870.2,2014.7 867.3,2011.8C861.4,2005.7 853.5,1990.8 849,1977.1C847.5,1972.3 845.5,1966.9 844.5,1965L842.8,1961.4L836.6,1961.8C830.7,1962.2 830.1,1962 826.7,1959.1C824.8,1957.3 822.2,1954 821.1,1951.7C818.2,1945.8 815,1932.5 815,1926.4C815,1923.6 814.1,1918.7 812.9,1915.4C811.3,1910.9 811,1908.1 811.4,1903.7C811.7,1900.5 811.5,1896 811,1893.7C810.4,1891.4 809.6,1879.2 809,1866.5C808.1,1844.6 807.9,1842.7 804,1827.5C799.1,1808 798.6,1798 802.3,1794.9C807,1790.8 810.1,1789.9 820.3,1789.4L830.5,1788.9L839.9,1799.3C849.4,1809.8 858.8,1823.6 863.9,1834.5C865.4,1837.8 867.5,1841.1 868.4,1841.9C870,1843.2 870.1,1843.1 869.4,1840.4C869.1,1838.8 866.8,1833.8 864.4,1829.3C862,1824.7 860,1820.2 860,1819.2C860,1818.2 858,1813.2 855.5,1808C851.4,1799.6 850.9,1798.1 851.2,1792.6L851.5,1786.5L855.2,1786.2C857.9,1786 859.3,1785.2 860.1,1783.7C861.9,1780.2 868.2,1774 870,1774C870.9,1774 872.1,1773.5 872.7,1772.9C873.4,1772.2 880.7,1771.9 895.1,1772.2C915,1772.5 916.8,1772.7 921.2,1774.8C927.9,1778.1 935.5,1788.7 942,1803.7C944.8,1810.3 948.1,1816.7 949.3,1817.8C950.5,1818.9 953.8,1820.4 956.5,1821.1C967.6,1823.7 982.9,1829.3 989.1,1833.1C995.2,1836.7 996.1,1837 1003.3,1837C1007.4,1837 1011.1,1836.6 1011.4,1836.1C1011.8,1835.6 1014.3,1834.7 1017.1,1834.1C1019.8,1833.5 1024,1832.2 1026.3,1831.1C1028.6,1830.1 1031.6,1828.9 1033,1828.5C1034.4,1828.1 1038.5,1824.9 1042.2,1821.3C1047.8,1815.8 1049.4,1813.3 1052.4,1806C1055.7,1798.1 1056.9,1796.5 1065.4,1788.2C1070.5,1783.1 1075.6,1779 1076.6,1779C1077.7,1779 1080.2,1778.1 1082.3,1777C1085.1,1775.5 1088.8,1774.8 1097.5,1774.4C1105.2,1773.9 1109.4,1773.3 1110.1,1772.3C1110.9,1771.4 1113.8,1771 1119.5,1771C1127.5,1771 1128,1771.1 1130.9,1774.1C1133.1,1776.2 1134,1778.1 1134,1780.3C1134,1784.9 1135,1785.8 1140,1786.2L1144.5,1786.5L1144.4,1793C1144.2,1798.4 1143.5,1800.9 1140.2,1807.5C1138,1811.9 1135.9,1817.1 1135.5,1819C1135.1,1820.9 1133.5,1824.5 1131.9,1827C1128.3,1832.8 1126,1838.3 1126,1841.2C1126.1,1843.5 1126.1,1843.5 1127.6,1841.5C1128.5,1840.4 1130.1,1837.5 1131.2,1835C1135.2,1825.7 1141.8,1817.1 1154.9,1803.8C1164.2,1794.3 1169.2,1790 1170.7,1790C1171.9,1790 1173.2,1789.6 1173.5,1789C1173.8,1788.5 1177.9,1788 1182.6,1788L1191,1788L1193,1791.3C1196.2,1796.5 1195.8,1810 1191.9,1825.3C1187.4,1842.9 1187.2,1844.2 1186,1869.4C1185.4,1882 1184.6,1892.8 1184.2,1893.4C1183.8,1894 1183.2,1899.2 1182.9,1905C1182.3,1915 1181.6,1919.9 1178.5,1937.2C1176.8,1946.7 1173.1,1955.2 1168.9,1959.1C1166.2,1961.6 1165,1962 1160.3,1962C1153,1962 1150,1964.9 1147,1975.1C1143.4,1987.3 1134,2005.8 1128,2012.3C1122.3,2018.5 1116.5,2023.1 1111,2025.6C1109.1,2026.5 1106.7,2027.9 1105.7,2028.8C1104.1,2030.2 1104.2,2030.4 1107.8,2032C1113.3,2034.5 1115.3,2039.2 1114.8,2048.2C1114.4,2054.9 1114.3,2055.3 1110.5,2058.4C1106.6,2061.7 1099.9,2063.8 1088,2065.5C1083.1,2066.3 1077.2,2071 1074.3,2076.3C1073,2079 1073,2079.6 1075.5,2084.7C1077,2087.7 1079.9,2091.9 1082,2094.1C1086.4,2098.8 1089.7,2099.1 1099.1,2096C1103.8,2094.4 1107.2,2094 1113.8,2094.2L1122.5,2094.5L1124,2101L1125.6,2107.4L1127.7,2104.5C1131.4,2099.1 1133.1,2094.9 1134.6,2087.4C1135.6,2081.9 1137,2078.4 1139.8,2074.2C1141.9,2071.1 1146.1,2064.9 1149,2060.5C1151.9,2056.1 1156.9,2049.8 1160,2046.5C1167.7,2038.4 1170.6,2033.4 1172.4,2025.6C1173.3,2022 1174.7,2017.4 1175.5,2015.4C1176.3,2013.4 1177,2010.7 1177,2009.4C1177,2008.1 1177.9,2004.8 1179,2002C1180.6,1997.9 1181,1994.6 1181,1984.7C1181,1971.3 1182,1966.4 1185.6,1961.1C1187.7,1958 1188,1956.4 1188,1948.3C1188,1943.3 1188.5,1937.9 1189.1,1936.3C1191,1931.5 1192,1926.8 1192.9,1917.3C1193.5,1911.7 1195.2,1904.2 1197.3,1897.8C1201,1886.9 1205,1870.7 1205,1866.8C1205,1865.5 1206.3,1861.8 1207.9,1858.4C1209.5,1855 1211.1,1850.8 1211.5,1848.9C1211.8,1847 1213.2,1842.1 1214.5,1838C1215.8,1833.9 1217.9,1826.5 1219.1,1821.5C1221.5,1811.6 1224.6,1804.6 1228,1801.5C1231,1798.8 1233,1794.7 1233,1791.3C1233.1,1787.3 1247.3,1761 1253.6,1753.3L1257.2,1749L1255,1742.2C1253.8,1738.5 1251.7,1733.6 1250.4,1731.3C1246.6,1724.8 1247.6,1716 1252,1716C1253,1716 1254.2,1715.6 1254.5,1715C1254.8,1714.5 1258,1714 1261.4,1714L1267.8,1714L1273.4,1720.4C1276.5,1723.9 1281.1,1728.2 1283.6,1729.8C1288.7,1733.2 1293.1,1738.8 1297.5,1747.4C1300.1,1752.6 1301.3,1753.8 1306,1756.2C1315.4,1760.9 1317.2,1760.4 1327.1,1750.3C1338.1,1739 1343.7,1731.7 1345,1727C1345.6,1724.9 1347.3,1720.4 1348.9,1716.9C1350.4,1713.4 1353,1706 1354.5,1700.5C1357.2,1690.7 1357.4,1690.4 1364.3,1683.3L1371.4,1676L1391.7,1676L1394.5,1682.8C1396.9,1688.3 1399,1691.1 1406.4,1698.3C1414.3,1706 1416.9,1707.9 1426.5,1712.5C1432.6,1715.4 1438.6,1718.1 1440,1718.5C1441.4,1718.9 1446.9,1720.9 1452.2,1723.1C1461.8,1727 1476.3,1731 1480.8,1731C1483.2,1731 1491.3,1734.2 1505,1740.5C1509.1,1742.4 1514.7,1744.5 1517.4,1745C1520,1745.6 1525.2,1747.6 1528.9,1749.5C1532.5,1751.4 1539.1,1754 1543.4,1755.5C1548,1756.9 1553,1759.4 1555.4,1761.3C1562,1766.7 1577.1,1776.5 1582.1,1778.7C1584.7,1779.9 1588,1782.4 1589.6,1784.6C1595,1791.6 1602,1798.7 1606.4,1801.5C1608.8,1803 1612.5,1806.6 1614.6,1809.4C1616.8,1812.2 1620.6,1816.8 1623.2,1819.6C1625.7,1822.5 1628.1,1825.9 1628.5,1827.2C1628.9,1828.4 1632.1,1836.7 1635.5,1845.5C1643.6,1866.1 1647.6,1885.5 1646.6,1899.5C1645,1921.5 1637.6,1948.1 1630.2,1958.5C1628.2,1961.3 1622.8,1967.4 1618.1,1972.3C1611.5,1979.1 1608.7,1981.3 1605.6,1982.1C1603.3,1982.6 1599.4,1984 1596.8,1985C1592.7,1986.8 1589.7,1987 1572.2,1987C1561.3,1987 1549.7,1986.5 1546.4,1985.9C1537.4,1984.2 1529.2,1979.1 1520.5,1969.7C1508.2,1956.4 1505,1947.8 1505,1928.4C1505,1919.4 1505.4,1917 1508.1,1909.3C1511.5,1899.7 1516.3,1893.6 1520.9,1892.7C1524.1,1892.1 1529.6,1890.2 1533.3,1888.4C1535.2,1887.5 1539.8,1887 1547.4,1887L1558.7,1887L1564.6,1892.8C1567.8,1895.9 1571.8,1900 1573.3,1901.8C1576.9,1905.8 1579.3,1905.9 1582,1901.9C1584.6,1898.3 1584.3,1895.9 1580.1,1886.6C1577.5,1880.8 1576.4,1879.6 1570.8,1876C1553.2,1864.6 1535.2,1860.3 1522.8,1864.4C1516.1,1866.7 1497.6,1868.3 1486.5,1867.6C1466.7,1866.3 1460.5,1864.7 1442.8,1856C1433.9,1851.6 1426.5,1848.2 1426.3,1848.4C1426,1848.6 1427.3,1851.9 1429,1855.6C1436.3,1871.6 1437.2,1875.3 1437.7,1892C1438.1,1903.7 1437.8,1909.7 1436.6,1916.1C1435.7,1920.8 1435,1926.5 1435,1928.6C1435,1934.8 1432.5,1941.7 1427,1951C1424.2,1955.7 1421.2,1961.5 1420.3,1964C1418.7,1968.3 1406.8,1982 1404.6,1982C1404,1982 1402.3,1983.2 1400.7,1984.8L1397.9,1987.5L1365.1,1987.5L1362.3,1984.8C1360.8,1983.3 1358.3,1981.7 1356.8,1981.1C1354.4,1980.2 1354,1979.5 1354,1976.3C1353.9,1970.3 1350.8,1964.4 1346.3,1962.2C1344.2,1961.1 1341,1959.9 1339.2,1959.5C1337.2,1959.1 1333.2,1956.5 1329.3,1952.9C1323.5,1947.7 1322.3,1947 1318.6,1947C1316.3,1947 1314,1947.4 1313.5,1947.8C1312.9,1948.3 1309.4,1949.3 1305.5,1950C1301.1,1950.8 1296.6,1952.5 1293.5,1954.5C1290.8,1956.2 1284,1960.3 1278.5,1963.5C1266.6,1970.5 1263.2,1973.2 1260.5,1977.4C1258.3,1980.9 1253,1987.3 1243.5,1997.8C1235.4,2006.8 1233.3,2010.4 1231,2019.6C1229.9,2024 1227.6,2030.5 1225.9,2034.3C1224.2,2038 1222.2,2044.7 1221.3,2049.3C1219.3,2060.3 1216.3,2070.4 1213.4,2076.2C1212.1,2078.8 1210,2083.7 1208.7,2087.2C1204.7,2097.8 1199.5,2107.2 1192.8,2115.9C1189.4,2120.5 1185.1,2126.5 1183.4,2129.3C1176,2141.5 1144.1,2174.2 1131.1,2183C1126.4,2186.2 1120.9,2190.4 1119.1,2192.4L1115.6,2196L1104.8,2196C1095.1,2196 1093.8,2195.8 1091.9,2193.9C1089.9,2191.9 1089.8,2191 1090.2,2183.5C1090.9,2173.4 1092.5,2169.8 1100.5,2161.1C1104.8,2156.4 1107.4,2152.4 1109.3,2147.7C1110.8,2144 1112,2140.5 1112,2140C1112,2137.6 1106.2,2139.3 1099.9,2143.6L1093.1,2148.3L1084.1,2147.8C1075.8,2147.4 1074.4,2147 1065.8,2142.8C1054.6,2137.2 1045.4,2130 1042.5,2124.5C1040.6,2120.8 1040.2,2120.5 1037,2121L1033.5,2121.5L1033.7,2127C1034.1,2135.6 1042.3,2152.9 1052.5,2166.5C1057,2172.6 1061.6,2178.9 1062.6,2180.5C1067.7,2188.7 1079.5,2204.2 1083.4,2207.8C1088.2,2212.2 1116.5,2226.4 1124,2228.1C1126.5,2228.7 1132.3,2229.5 1137,2229.9C1155.9,2231.6 1174.3,2243.8 1182.3,2259.9L1186,2267.3L1186,2281.9C1186,2296 1185.9,2296.7 1183.1,2302.7C1181.5,2306.1 1178.5,2311.4 1176.6,2314.4C1174.6,2317.5 1173,2320.4 1173,2320.9C1173,2321.3 1174.8,2324.1 1176.9,2327.1C1179,2330.1 1182.9,2336.9 1185.4,2342.1C1190.1,2351.6 1190.1,2351.8 1190.6,2364.1C1191.8,2390.3 1186.9,2406.2 1173.5,2419.6C1165.2,2428 1159.3,2430.6 1146.8,2431.6C1139.3,2432.1 1136.7,2432.7 1132,2435C1131.2,2435.4 1129.1,2438.5 1127.3,2442C1123.6,2449.4 1112.5,2461.1 1107.1,2463.3C1103.3,2464.9 1088.5,2467 1076,2467.7C1066.6,2468.3 1058.3,2466.3 1047.7,2460.8C1043.4,2458.6 1037.7,2454.7 1034.9,2452.2C1020.4,2439.2 1010,2415.1 1010,2394.7C1010.1,2382.4 1011.3,2378.3 1016.8,2372.8C1019.3,2370.1 1021.9,2368 1022.4,2368C1023,2368 1024.8,2366.6 1026.6,2364.9C1029.1,2362.5 1030.8,2361.8 1035.6,2361.3C1038.8,2361 1042.3,2360.1 1043.2,2359.3C1044.5,2358.1 1047.4,2357.9 1057.7,2358.2C1068.3,2358.5 1071.4,2359 1075.7,2360.9C1082,2363.7 1091.7,2373.4 1095.4,2380.7C1096.8,2383.5 1098.4,2386.1 1098.9,2386.4C1099.4,2386.7 1101.3,2383.5 1103.2,2379.3C1106.2,2372.1 1106.5,2370.8 1106.3,2362.5C1105.9,2348.4 1103.7,2338.3 1098.6,2327C1091.8,2311.8 1073,2284.9 1057,2267.5C1051.7,2261.7 1038.2,2242.2 1034.5,2235C1033.5,2233.1 1030.7,2228.2 1028.2,2224.2C1024.1,2217.4 1022.7,2214 1017.1,2197.5C1005.3,2162.7 1003.9,2157.2 1003.1,2143C1002.7,2135.6 1001.7,2128.2 1001,2126.5C1000.3,2124.8 999.5,2117.6 999.2,2110.3C998.8,2098.4 998.9,2097 1000.4,2097C1002.5,2097 1005.7,2095.2 1009.3,2092.1C1011.8,2089.8 1012,2089 1012,2082.3L1012,2074.9L1016.7,2075.2C1020.9,2075.5 1021.5,2075.8 1023.3,2079.3C1024.4,2081.4 1025.4,2082.9 1025.6,2082.7C1025.9,2082.5 1025.6,2079.2 1025,2075.4C1024.5,2071.6 1024,2065.4 1024,2061.6C1024,2057.7 1023.5,2052 1022.8,2048.9C1021.9,2044.5 1021.9,2042.5 1022.8,2040.6C1023.4,2039.2 1023.5,2037.8 1023,2037.5C1022.5,2037.2 1021.8,2039.1 1021.5,2041.7C1020.4,2049.8 1020.3,2050 1016,2050C1011,2050 1009.5,2047.6 1010.4,2040.8C1011.6,2032.3 1012.4,2031 1017,2031C1019.2,2031 1021,2030.6 1021,2030C1021,2029.5 1019.2,2029 1017,2029L1013,2029L1013,2018L1016.7,2018C1018.7,2018 1021.2,2018.8 1022.2,2019.7C1023.9,2021.2 1024.2,2021.2 1025,2020C1025.6,2019.2 1026,2016.9 1026,2015C1026,2013.1 1026.9,2009.7 1027.9,2007.5C1028.9,2005.3 1030,2002.2 1030.4,2000.5C1030.8,1998.9 1032.4,1995.8 1034.1,1993.8C1035.7,1991.8 1037,1989.8 1037,1989.5C1037,1988.8 1047.5,1977.3 1063.9,1959.8L1072.3,1950.9L1068.9,1947.2C1067,1945.2 1065.4,1943.3 1065.2,1943.1C1064.5,1941.9 1057.8,1949.9 1055.6,1954.6C1054.2,1957.5 1052.2,1960.4 1051.1,1960.9C1050,1961.5 1048.9,1963.3 1048.5,1964.9C1048.1,1966.8 1045.9,1969.6 1042.4,1972.6C1039.3,1975.2 1035,1979.8 1032.7,1982.9C1030.4,1986 1026.4,1990.9 1023.8,1993.9C1021.2,1996.8 1017.6,2002.1 1015.8,2005.7C1010.8,2015.6 1009.4,2016.4 999.2,2016.8C987.4,2017.2 985,2015.8 979.3,2005.5C976.9,2001.2 973.3,1995.8 971.2,1993.6C969.1,1991.3 966,1987.4 964.3,1984.9C962.6,1982.4 958.4,1977.8 955.1,1974.7C949.4,1969.5 948.8,1969.2 945.3,1969.7C943.2,1970 941.4,1970.4 941.2,1970.5C941.1,1970.6 944.7,1974.6 949.2,1979.3C957.8,1988.3 960.8,1992.1 963.6,1998C968.1,2007.6 969,2010.4 969,2014.9C969,2020.8 971.1,2023.3 972.8,2019.5C973.8,2017.3 974.6,2017 979,2017L984,2017L984,2021.6C984,2024.1 983.5,2027 983,2028C982.3,2029.3 982.3,2030.1 983,2030.5C983.5,2030.8 984,2035.1 984,2040.1L984,2049L979,2049C974.5,2049 974,2048.8 973.9,2046.8C973.8,2044.9 973.6,2045.1 973,2047.5C972.6,2049.2 972.2,2056.1 972.1,2063C972,2069.9 971.5,2077.2 970.9,2079.3C969.9,2083.2 970.4,2086 971.5,2082.4C973.3,2076.8 974.5,2075.5 978.8,2075.2L983,2074.9L983,2082C983,2089.6 982.9,2089.4 989.2,2090.5C994.9,2091.4 996,2094.4 996,2108.7C996,2117.2 995.4,2122.6 994,2127.9C992.7,2132.6 992,2138.6 992,2143.9C992,2153.7 989.6,2164.9 985.1,2176.2C983.4,2180.4 981.4,2186.7 980.7,2190.2C979.9,2193.6 978.4,2198.3 977.3,2200.5C976.2,2202.7 974.5,2207.2 973.5,2210.5C972.6,2213.8 970.1,2219.2 968.1,2222.5C966,2225.8 963.3,2230.5 962,2233C958.1,2240.7 944,2261.2 938.6,2267C927.8,2278.7 917.8,2292 903.3,2314C900.2,2318.8 893.7,2333.2 892,2339C891.4,2340.9 890.3,2348.3 889.5,2355.4L887.9,2368.4L891.1,2376.4C892.9,2380.9 894.7,2385 895.2,2385.6C895.7,2386.3 899,2383.6 905,2377.6C914.3,2368.1 918,2366 925.5,2366C928.1,2366 930,2365.1 932.9,2362.5L936.7,2359L969.3,2359L973.6,2362.5C981.9,2369.3 984.9,2377.9 985,2394.7C985,2406.3 983,2416.1 978.3,2426.4C971.1,2442.6 960.7,2454.1 947.1,2460.9C932.2,2468.4 923.8,2469.4 903.2,2465.9ZM941,1960C942.8,1960 942.7,1959.7 940.3,1955C936.5,1947.6 929,1940.4 929,1944.1C929,1944.7 927.6,1946.5 925.9,1948.1L922.9,1950.9L938.5,1967.3L938.8,1963.6C939,1960.8 939.6,1960 941,1960ZM906.8,1943.8C907.9,1942.5 909.3,1940.3 909.9,1938.8C911.1,1935.6 916.5,1933 921.6,1933C925.3,1933 925.7,1931.9 923.5,1928C922.6,1926.5 922.1,1922.6 922,1917.9C922,1911.4 922.3,1910 924.1,1908.4C926.2,1906.5 926.2,1906.5 920.7,1905.9C913.9,1905.1 909.8,1902.4 907.1,1896.7C904,1890.3 904.3,1884.3 908,1879.4C910.9,1875.6 911.8,1872.6 910.3,1871.7C909.8,1871.5 907.5,1872.7 905,1874.5L900.5,1877.7L900.9,1884.6C901.1,1888.4 901.7,1891.8 902.3,1892.2C903.6,1893 904.5,1902.9 903.6,1906.5C903,1908.7 902.5,1909 898.1,1909C891.8,1909 890.6,1907.5 889,1897.5C888.3,1893.1 887.1,1889 886.4,1888.4C885.7,1887.8 884.6,1885.3 884.1,1882.8C881.5,1871.1 874.4,1853 872.5,1853C872.3,1853 871.4,1855.3 870.5,1858.1C868.9,1862.8 868.9,1863.5 870.4,1866.8C873,1872.6 875,1881.6 875,1887.3C875,1893.5 878.9,1909.9 881.7,1915.5C882.8,1917.7 884,1920.9 884.3,1922.6C885.3,1928 892,1940.8 895.1,1943.5C899,1946.7 903.9,1946.8 906.8,1943.8ZM1100.8,1942.8C1104.1,1939.3 1110.3,1926.8 1111.5,1921.1C1111.9,1919.2 1113.3,1915.7 1114.6,1913.2C1115.9,1910.7 1117,1907.7 1117,1906.5C1117,1905.3 1117.8,1901.9 1118.7,1898.9C1119.6,1895.9 1120.3,1891.3 1120.1,1888.5C1119.9,1883.9 1122.1,1873.8 1125.1,1866.5C1126,1864 1126,1862.3 1124.8,1857.5L1123.3,1851.6L1120.7,1856C1118.1,1860.5 1112.8,1875.4 1111.5,1882C1111.1,1883.9 1110.2,1886.2 1109.5,1887C1107.4,1889.3 1105,1897.1 1105,1901.4C1105,1906.7 1102.8,1909 1097.5,1909C1095.3,1909 1092.9,1908.5 1092.2,1907.8C1090.6,1906.2 1090.7,1895.9 1092.3,1893.5C1093.9,1891.1 1096.2,1880.5 1095.4,1878.7C1094.8,1877.1 1085.4,1871 1084.6,1871.7C1083.3,1873 1084.1,1875.8 1086.5,1878C1088.8,1880.1 1089,1881.1 1089,1888.7L1089,1897L1084.7,1901.5C1080.8,1905.5 1079.9,1906 1075.8,1906L1071.2,1906L1072.6,1909.8C1074.5,1915.2 1074.3,1922.8 1072,1927.9C1070.9,1930.3 1070,1932.3 1070,1932.5C1070,1932.6 1072.3,1933 1075.1,1933.2C1080.3,1933.7 1083.5,1936.1 1086.6,1941.5C1087.6,1943.4 1092.8,1945.8 1096.1,1945.9C1096.9,1946 1099,1944.5 1100.8,1942.8Z" style="fill-rule:nonzero;"/>
        <path d="M990.5,2343.6C988.5,2342.7 986.5,2340.5 984.6,2336.9C983,2333.9 980.8,2330.5 979.8,2329.3C977.8,2327.2 977.8,2327.2 974.6,2329.1C972.9,2330.1 970.5,2331 969.3,2331C968.1,2331 965.8,2332.1 964.2,2333.5C961.6,2335.6 960.2,2336 954.2,2336C941.2,2336 938.6,2331 937.6,2304L936.9,2286.5L940.2,2278.5C943.5,2270.8 952.2,2257.7 957,2253.5C958.2,2252.4 960,2249.9 961,2247.9C963.3,2243.4 981.5,2226 983.9,2226C984.9,2226 986.9,2225.1 988.3,2224C990.5,2222.3 992.3,2222 1002.8,2222L1014.9,2222L1019.5,2228C1022,2231.3 1024.5,2234 1025,2234C1025.5,2234 1027.8,2237.3 1030.1,2241.3C1032.5,2245.2 1036.3,2250.8 1038.6,2253.5C1049.5,2266.6 1052.1,2270.7 1056,2281C1058.9,2288.4 1059.2,2289.9 1058.5,2295.8C1058.2,2299.5 1057.8,2306.6 1057.6,2311.5C1057.4,2322.4 1055.1,2329.9 1050.9,2333.5C1048.3,2335.6 1046.9,2336 1041.2,2336C1035.2,2336 1034.1,2335.7 1030.9,2333C1028.9,2331.4 1025.3,2329.4 1022.9,2328.6C1018.6,2327.1 1018.5,2327.1 1015.7,2329.8C1014.1,2331.3 1011.9,2334.3 1010.8,2336.5C1007.2,2343.7 1005.3,2345 999.1,2345C996,2344.9 992.1,2344.3 990.5,2343.6Z" style="fill-rule:nonzero;"/>
        <path d="M988.4,1777.5C985.9,1775.8 983,1768.8 979.9,1757.5C977.9,1750 977.7,1747 977.5,1707C977.2,1657.5 977.3,1658.2 967.1,1647.5C964,1644.2 959.4,1638.6 957,1635C954.6,1631.4 951.2,1626.7 949.4,1624.5C944.7,1618.6 939.4,1607.3 938,1600.3C937.3,1596.8 936.9,1589.5 937.2,1583.6C937.5,1574.4 937.8,1572.7 939.7,1570.8C943.3,1567.2 948.7,1566 961.1,1566C971.2,1566 973.1,1565.7 975.3,1564C977.7,1562.1 979.3,1562 1014.3,1562L1050.8,1562L1053.3,1565C1057.1,1569.4 1058.3,1576.8 1057.8,1591.3L1057.4,1603.9L1052.6,1613.2C1049.9,1618.3 1046.8,1623.6 1045.5,1625C1044.3,1626.4 1041,1630.9 1038.2,1635C1035.5,1639.1 1030.5,1645.5 1027.3,1649.1C1017.9,1659.6 1017.6,1661.1 1018.3,1697.4C1018.6,1714 1018.5,1732.7 1018,1739.1C1016.9,1755.3 1011,1775.8 1006.9,1778C1004,1779.6 990.8,1779.2 988.4,1777.5Z" style="fill-rule:nonzero;"/>
        <path d="M942,1768.7C938.5,1766.9 937.5,1764.2 934.6,1750C933.2,1743.1 930.8,1733.6 929.1,1728.8C924.5,1715.9 907.5,1678.2 903.6,1672.5C901.8,1669.8 899.7,1666.4 899,1665C898.3,1663.6 895.5,1659.4 892.8,1655.5C890.2,1651.7 886.1,1645.6 883.8,1642L879.6,1635.5L878.9,1638.7C877.8,1643.9 876.4,1645 870.3,1645L864.8,1645L865.2,1639.4C865.8,1632.5 867.6,1630.7 873.8,1631.2C876.1,1631.4 878,1631.3 878,1631.1C878,1630.9 876.2,1627.1 873.9,1622.6C869.2,1613.3 857.2,1594.2 843.8,1574.8C840.7,1570.2 834.9,1561.3 831,1555C827.1,1548.7 822.1,1540.8 820,1537.5C813.5,1527.7 806.4,1513 804.5,1505.5C803.5,1501.7 801.7,1497.1 800.4,1495.4C797.3,1491.2 792.7,1480.7 790,1471.9C788.8,1467.8 786.9,1463.1 785.8,1461.3C784.8,1459.6 782.8,1454.9 781.5,1451C780.2,1447.1 778.2,1442.4 777.1,1440.7C776.1,1438.9 773.8,1432.8 772.1,1427C768.3,1413.9 765.1,1405.5 762.3,1400.9C761,1398.9 760,1396.8 760,1396.3C760,1395.5 753.9,1377.1 748.7,1362C747.8,1359.5 746.7,1355.3 746.2,1352.5C745.7,1349.8 743.1,1342.8 740.5,1337C738,1331.2 734.9,1324.3 733.7,1321.5C728.5,1309.4 720.7,1300.9 712.4,1298.5C708.7,1297.4 705.5,1295.7 703.3,1293.5C700.1,1290.3 700,1289.9 700,1282.6C700,1277.3 700.4,1275 701.2,1275C701.9,1275 705.2,1272.3 708.6,1268.9C714.1,1263.4 715.3,1262.8 721.6,1261.4C725.4,1260.5 734,1259.6 740.7,1259.3L752.8,1258.7L759.7,1262.7C763.4,1264.8 769.1,1267.6 772.3,1268.9C778.2,1271.3 783,1276.4 783,1280.2C783,1281.1 784.7,1283.9 786.8,1286.3C788.8,1288.8 792.1,1292.9 794,1295.4C799.4,1302.7 803.1,1307 804,1307C804.4,1307 804.5,1301.9 804.2,1295.8C803.8,1286.6 804.1,1282.9 805.8,1276C806.9,1271.3 808.3,1265.1 808.9,1262.2C809.5,1259.3 810.9,1254.9 812,1252.5C813.1,1250.1 814,1247.2 814,1246.1C814,1242.1 825.1,1230.5 852.5,1206C865.8,1194.2 867.7,1192.8 874.5,1190.4C879.9,1188.5 895.6,1188.5 896.3,1190.4C897.3,1192.9 903.8,1220.5 905,1226.9C905.6,1230.4 907,1235.4 908,1238C909.8,1242.5 911.5,1251.7 913,1264.5C913.3,1267.8 914.4,1272.3 915.3,1274.5C916.2,1276.7 917.4,1282.9 917.8,1288.3C919.1,1302.4 918.5,1302 939,1302C953.4,1302 955.9,1302.2 956.4,1303.6C957.5,1306.6 957,1312.7 955.1,1318.1C954.1,1321.2 952.9,1325.6 952.5,1328C951.9,1331.3 950.6,1333.6 946.9,1337.5C942.2,1342.5 942,1342.9 942,1348.5C942,1360.7 931.4,1382.6 919.5,1395C916,1398.6 912.2,1403.5 911,1406C909.7,1408.5 907,1412.4 904.9,1414.7C902.6,1417.2 900.5,1420.9 899.5,1424.2C898,1429.4 898,1429.5 900.1,1431.3C901.3,1432.2 902.9,1433 903.7,1433C904.5,1433 905.6,1434.4 906.1,1436L907.2,1439L926.9,1439C948.8,1439 947.5,1438.7 961,1447C972.1,1453.8 974.4,1455.6 979,1461.3C982.7,1465.9 984,1468.5 984.8,1472.8C988.2,1491 987.1,1502.9 980.8,1514.9C978.7,1519 977,1522.9 977,1523.7C977,1526.3 972.2,1534.5 968.8,1537.6C967,1539.3 962.5,1542.4 958.8,1544.4C952.3,1547.9 951.7,1548.1 943.4,1547.8C935.5,1547.5 934.5,1547.3 932.9,1545C931.8,1543.5 930.5,1539.1 929.8,1534.2C928.1,1522 924.6,1518.5 918.2,1522.8C916.7,1523.7 914.6,1525 913.5,1525.6C910.9,1527 907.8,1533.2 907.7,1537.4C907.6,1541.3 911.9,1551.8 919.3,1565.5C923.6,1573.5 930.2,1589.6 933,1599C934.7,1604.8 937,1611.4 938,1613.7C939.1,1616 940.2,1620.3 940.6,1623.2C941,1626.1 942.6,1632.1 944.2,1636.5C946.9,1643.8 950,1654.9 956.6,1681C957.9,1686.2 959,1692.6 959,1695.2C959,1697.8 959.8,1702.9 960.7,1706.7C962.1,1712.2 962.5,1717.9 962.5,1736.5C962.4,1760.7 962.1,1762.7 957.2,1768.3C955.4,1770.4 945.9,1770.7 942,1768.7Z" style="fill-rule:nonzero;"/>
        <path d="M1038.3,1767.6C1036.7,1766.2 1034.8,1763.4 1034.2,1761.3C1032.4,1755.1 1032.5,1718.1 1034.4,1708C1035.3,1703.3 1036,1697.7 1036,1695.4C1036,1693.2 1037.3,1686.5 1038.9,1680.4C1040.5,1674.4 1042.5,1666.6 1043.4,1663C1046.7,1649.9 1049.2,1641.4 1051.5,1635.5C1052.8,1632.2 1054.1,1627.3 1054.5,1624.5C1054.9,1621.8 1056,1617.5 1057,1615C1058,1612.5 1060.5,1605.1 1062.5,1598.5C1066.3,1586 1071.8,1573.4 1079.3,1559.5C1082.5,1553.6 1088,1540.2 1088,1538.2C1088,1534.4 1084.9,1527.5 1081.8,1524.3C1077.8,1520.1 1074.1,1520 1069.9,1523.8C1067.2,1526.2 1066.6,1527.7 1065.5,1534.9C1064.7,1539.4 1063.4,1544.3 1062.5,1545.7C1060.9,1548.1 1060.5,1548.2 1052.2,1547.8C1044,1547.4 1043,1547.1 1034.7,1542.5C1024.7,1536.9 1020.9,1532.7 1018.5,1524.3C1017.6,1521.3 1015.6,1516.8 1014,1514.2C1010.1,1507.8 1008.6,1498.3 1009.3,1484.1L1009.9,1472.7L1016.2,1466.3C1022.3,1460 1023.8,1459 1031,1455.3C1032.9,1454.4 1036.3,1451.9 1038.6,1449.9C1041.5,1447.3 1044,1446.1 1047.3,1445.6C1049.8,1445.2 1053,1444 1054.3,1442.9C1056.5,1441.2 1058.5,1441 1071.2,1441L1085.6,1441L1091.3,1435.2L1097.1,1429.3L1095.9,1424.6C1095.1,1421.5 1093.1,1418 1090.3,1414.7C1087.8,1411.8 1085,1407.7 1084,1405.5C1083,1403.3 1079.6,1399 1076.5,1396C1064.7,1384.5 1052.2,1358.1 1053.2,1346.8C1053.7,1342.1 1053.5,1341.6 1050.3,1338.6C1048.4,1336.9 1046.1,1334.7 1045.2,1333.8C1043.5,1332 1041.4,1324.1 1040.3,1315.7C1039.8,1311.4 1040,1310.6 1042.6,1307.9C1044.1,1306.3 1046.3,1305 1047.5,1305C1048.6,1305 1050,1304.6 1050.6,1304C1051.1,1303.5 1056.4,1302.7 1062.3,1302.3C1075.9,1301.5 1076.5,1300.9 1077.4,1288.2C1077.8,1283.4 1078.9,1277.3 1080,1274.5C1081,1271.8 1082.1,1267.3 1082.3,1264.5C1083.4,1254 1085.1,1245.2 1087.5,1237.5C1089.9,1229.8 1095.8,1204.8 1096.7,1198.4C1097,1196.5 1098.6,1193.8 1100.7,1191.9L1104.1,1188.5L1116.1,1188.1L1128,1187.8L1134.5,1193.9C1138.1,1197.3 1141.5,1200 1142.1,1200C1143.5,1200 1161.8,1218.7 1166,1224.4C1167.9,1227 1171.7,1231.8 1174.4,1235.1C1179.1,1240.9 1182.5,1248.5 1185.5,1259.5C1186.3,1262.3 1187.7,1267.4 1188.6,1271C1189.9,1275.6 1190.5,1281.8 1190.6,1292.3C1190.7,1300.5 1191,1307.4 1191.3,1307.6C1191.9,1308.2 1196.6,1302.6 1201.5,1295.4C1206.1,1288.7 1216.4,1277.5 1219.6,1275.7C1220.8,1275 1223.7,1273.4 1226.1,1272.1C1228.5,1270.8 1232.8,1268.2 1235.6,1266.4C1238.4,1264.5 1241.7,1263 1243,1263C1244.3,1263 1246.8,1261.9 1248.6,1260.5C1251.7,1258.2 1252.6,1258 1263.7,1258C1280.2,1258.1 1283.2,1259.3 1291.1,1269.3C1294.9,1274.1 1295,1274.3 1295,1282.6L1295,1291.1L1290.4,1296C1287,1299.7 1284.9,1301 1281.9,1301.5C1273.8,1302.9 1262.4,1316.3 1258.5,1329C1258.1,1330.4 1255.8,1335.6 1253.5,1340.5C1251.1,1345.5 1248.9,1351.9 1248.5,1355C1248.1,1358 1246.6,1363.4 1245,1367C1243.5,1370.6 1240.9,1378.2 1239.1,1384C1237.3,1389.8 1234.6,1397.2 1233,1400.5C1229,1408.6 1225.6,1417.9 1223,1427.5C1221.8,1431.9 1219.7,1437.7 1218.4,1440.3C1217,1442.9 1214.8,1448.3 1213.3,1452.3C1211.9,1456.2 1210.1,1460.4 1209.4,1461.6C1208.6,1462.7 1207.3,1466.1 1206.4,1469.1C1203.9,1477.6 1198.1,1491 1195.4,1494.5C1194.1,1496.3 1192.1,1501.2 1190.9,1505.5C1188.9,1513.4 1182.9,1526.3 1178,1533.5C1174.2,1539.1 1169.8,1546 1163.2,1556.7C1160.1,1561.7 1155,1569.6 1151.9,1574.2C1140.6,1591 1138.4,1594.4 1132.3,1603.9C1125.7,1614.1 1118,1628.4 1118,1630.4C1118,1631.2 1119.2,1631.5 1121.4,1631.2C1123.2,1631 1125.7,1631.3 1126.9,1631.9C1129.8,1633.5 1132.2,1638.5 1131.8,1642.3L1131.5,1645.5L1125.6,1645.5C1118.7,1645.4 1117,1643.9 1117,1637.6L1117,1633.5L1112.5,1640.5C1110.1,1644.4 1105.8,1650.7 1103.1,1654.5C1100.5,1658.4 1097.4,1663.1 1096.5,1665C1095.5,1666.9 1093.6,1669.9 1092.4,1671.6C1089.6,1675.2 1082.8,1689.5 1074,1710C1065.8,1729.1 1063.6,1735.7 1060.5,1750.8C1059,1757.7 1057.4,1764.2 1056.9,1765.1C1054,1770.6 1043.4,1771.9 1038.3,1767.6Z" style="fill-rule:nonzero;"/>
        <path d="M850.6,1751.9C847.5,1749.5 842.5,1740 840.3,1732.6C835.2,1715.2 821,1688.5 805.9,1668.1L803.5,1664.8L802.9,1670.7C802.4,1675.3 801.3,1678.1 797.2,1684.7L792.2,1692.9L794.9,1697.2C802.9,1709.8 807.2,1719.1 807.7,1724.9C808.5,1733 807.4,1737.4 803.8,1741.5C800.9,1744.9 800.6,1745 793.2,1745C784.1,1745 781.6,1743.4 773.5,1732.6C767.7,1724.8 764.8,1722 757.8,1717C755.2,1715.2 751.9,1712 750.4,1709.8C748.9,1707.7 745.4,1704.3 742.6,1702.3C739.8,1700.3 735,1696.3 732,1693.5C729,1690.7 723.4,1685.8 719.5,1682.8C715.7,1679.8 711.6,1676.3 710.5,1675C709.4,1673.8 706.8,1671.9 704.7,1670.8C702.5,1669.7 698.9,1667.1 696.6,1665C691.8,1660.6 681.3,1655 672.2,1652C668.7,1650.8 663.8,1648.6 661.1,1647C656.1,1643.9 636.1,1638.3 620.5,1635.6C607.1,1633.3 584.5,1632.4 582.5,1634C581.6,1634.8 577,1635.7 572.2,1636.1C567.4,1636.5 560.6,1637.3 557,1637.9C550.6,1638.8 526.1,1646.8 523.7,1648.8C523.1,1649.3 521.5,1650.1 520.3,1650.4C519,1650.8 515.7,1652.9 512.8,1655.1C509.9,1657.2 506.8,1659 506,1659C505.1,1659 502.9,1660.1 501,1661.5C499.1,1662.9 495.6,1665 493.3,1666.1C487.8,1668.8 474.8,1680.9 470.5,1687.4C458.3,1705.8 449.8,1714.4 438,1720.3L429.5,1724.5L377.8,1724.5L375.4,1721.7C373.5,1719.5 373,1717.7 373,1713.8L373,1708.7L385.4,1696.1C397.1,1684.2 398,1682.9 402.3,1673.5C408.4,1659.8 409.5,1655.4 408,1650C404.4,1636.6 396.1,1625.2 388.2,1622.6C383.2,1621 364.7,1619 354,1619C348.9,1619 346.5,1618.4 343.2,1616.5C340.8,1615.2 337,1613.5 334.7,1612.9C325.3,1610.5 313.2,1599.6 305.8,1586.9C301.3,1579.4 301,1575.3 304.4,1572.1C306.7,1569.9 307.1,1569.9 325.1,1570.5C372.5,1572 391.6,1572.1 395.5,1571C399.8,1569.8 406.4,1567.4 409.3,1565.9C410.2,1565.4 413.2,1564.7 415.8,1564.3C418.4,1564 421.2,1563.2 422,1562.5C425,1560.2 431.8,1559.1 448.3,1558.4C457.5,1558 465.3,1557.3 465.6,1556.8C465.9,1556.4 467.8,1556 469.8,1556C471.8,1556 475.5,1555.4 478,1554.6C480.5,1553.9 486.9,1552.9 492.2,1552.5C498.6,1552.1 502.3,1551.3 503.1,1550.4C504,1549.3 509.3,1549 531.6,1549L559,1549L581.8,1554.5C604.2,1560 612.6,1562.6 618.5,1566C620.2,1567 624.9,1568.7 629,1569.9C633.1,1571.1 640.4,1573.7 645.1,1575.6C649.9,1577.4 654.3,1579 654.9,1579C655.4,1579 659.2,1580.6 663.2,1582.5C668.1,1584.8 671.7,1587.3 674.1,1590.2C676.1,1592.6 679.7,1595.9 682.1,1597.5C684.5,1599.1 688.3,1601.9 690.4,1603.7C693.1,1605.9 695.4,1607 697.6,1607C702.2,1607 709.2,1610.3 714.2,1614.8C716.6,1616.9 721.7,1620.8 725.5,1623.5C732.7,1628.5 766.2,1661.7 772.8,1670.3C774.8,1672.9 777,1675 777.7,1675C778.4,1675 779.9,1673.1 781.1,1670.8C782.3,1668.4 784.8,1664.8 786.8,1662.8C789.8,1659.7 791.1,1659 794.3,1659L798.2,1659L791.4,1649.3C787.6,1643.9 782.5,1636.4 779.9,1632.5C777.3,1628.7 774.2,1624.6 773,1623.5C771.8,1622.4 769.3,1619.2 767.4,1616.3C765.6,1613.4 762.8,1610.4 761.2,1609.6C757.8,1607.8 751.5,1601.1 750.6,1598.2C750.2,1597 748.4,1595.6 746.4,1595C744.2,1594.2 740.8,1591.4 736.7,1586.7C727.8,1576.4 711,1560.2 707.5,1558.3C703.3,1556.2 694.5,1549.5 688.5,1544C685.8,1541.4 681.3,1538.1 678.5,1536.6C675.8,1535 671.6,1532.4 669.3,1530.9C667,1529.3 664.8,1528 664.4,1528C663.5,1528 646.3,1520.3 636.5,1515.4C632.7,1513.5 628.8,1512 627.9,1512C627.1,1512 623.3,1510.5 619.4,1508.6C609.8,1503.9 576.6,1494.7 564.5,1493.5C561.2,1493.1 556.3,1492.2 553.6,1491.4C548,1489.8 542.4,1489.6 541.6,1490.9C541.3,1491.3 532.4,1492 521.8,1492.2C504.1,1492.7 501.9,1493 495.5,1495.4C491.7,1496.9 485.4,1498.7 481.5,1499.6C473.6,1501.3 461.9,1506.2 457.7,1509.7C456.1,1511 454.3,1512 453.6,1512C452.8,1512 450.1,1513.7 447.4,1515.9C444.7,1518 440.9,1520.5 439,1521.5C437.1,1522.5 433,1525.5 429.9,1528.1C425.5,1531.9 423.8,1534.2 422.1,1538.9C420.7,1542.8 418.7,1546 416.1,1548.3C412.4,1551.7 411.9,1551.8 401.9,1552.5C396.2,1552.9 383,1553 372.5,1552.8C357,1552.5 352.9,1552.2 350.3,1550.8C345.7,1548.2 343,1544.3 343,1540.1C343,1536 345,1533.7 353.1,1528.2C359.7,1523.8 367.4,1515 368.8,1510.3C370.3,1505.4 370.3,1499.7 369,1494.8C367.7,1490.2 361.3,1482 357.4,1480C355.8,1479.2 352.9,1477.4 351,1475.9C349.1,1474.5 346,1472.8 344.1,1472.2C339.2,1470.5 325.5,1470.6 324.1,1472.4C323.4,1473.2 319.8,1473.9 314.2,1474.2C309.4,1474.5 303.7,1475.4 301.5,1476.3C299.3,1477.1 294.1,1478.3 290,1478.9C280.6,1480.4 274.1,1483.3 263.5,1491C258.9,1494.3 254.7,1497 254.1,1497C248.8,1497 235.1,1520.2 232.5,1533.5C228.4,1554.9 238,1584.6 255.7,1604.7C259.6,1609.1 265.1,1613.6 272.6,1618.5C278.7,1622.5 286.2,1627.8 289.3,1630.3C295.3,1635.3 303.1,1638 311.1,1638C313.5,1638 318.7,1638.7 322.5,1639.6C331.3,1641.6 352.3,1642.6 355.3,1641.3C356.5,1640.7 358.6,1639.7 360.1,1639.1C361.5,1638.4 364.8,1638 367.6,1638.2L372.5,1638.5L372.8,1645.4L373.1,1652.2L362.5,1663C353.5,1672.1 350.4,1674.5 343.2,1678.2C338.5,1680.5 333.5,1683.2 332.1,1684C330,1685.2 324.7,1685.5 302.5,1685.5C276.6,1685.5 275.3,1685.4 270.6,1683.2C267.9,1682 263,1680.6 259.6,1680.1C256.3,1679.6 250.1,1677.6 246,1675.7C241.9,1673.8 236.5,1671.7 234,1671C228.1,1669.5 221.7,1664.4 209.7,1651.8C195.8,1637.1 189.6,1628.9 184,1617.5C178.3,1606.1 173,1588.1 172,1577C171.6,1572.9 170.5,1567.5 169.6,1565.1C167,1558.4 166.4,1540.3 168.4,1530.9C169.5,1525.5 169.8,1520.6 169.4,1513.4L168.8,1503.5L176,1486C187.4,1458.6 188.1,1456 189.1,1442.5C190.3,1425.2 190.5,1424.1 195.2,1414.9C199.7,1405.8 205.7,1398.6 210.5,1396.6C212.2,1395.9 216,1393.2 219,1390.5C222,1387.9 228.2,1384 232.6,1381.9C237.1,1379.8 243.3,1376.5 246.3,1374.6C249.8,1372.4 254.9,1370.3 259.8,1369.1C264.1,1368.1 269.1,1366.5 270.8,1365.6C272.5,1364.7 274.7,1364 275.7,1364C276.7,1364 278.7,1363.3 280.2,1362.6C281.7,1361.8 285.5,1360.8 288.7,1360.5C291.9,1360.1 295,1359.4 295.5,1359C296.8,1358 300.8,1357.2 310.2,1356C314.5,1355.5 318.7,1354.6 319.7,1354.1C326.8,1350.4 344.1,1349.1 394.8,1348.6C428.5,1348.2 436.7,1348.4 439.4,1349.5C442.7,1350.9 452,1352.4 466,1353.9C470.1,1354.3 474.5,1355.2 475.8,1355.9C478.4,1357.3 489.7,1359.6 501.2,1361C505.5,1361.6 511.1,1362.8 513.7,1363.9C516.3,1364.9 520.7,1366.1 523.4,1366.5C526.1,1366.9 530,1368.3 531.9,1369.6C534.3,1371.2 536.9,1372 539.8,1372C542.1,1372 546.6,1372.9 549.8,1374C552.9,1375.2 557.5,1376.5 560,1377.1C562.5,1377.6 570.1,1380.9 577,1384.5C585.8,1389 593.3,1391.9 602.5,1394.5C610.5,1396.7 617,1399.2 619.5,1400.9C621.7,1402.5 625.8,1404.5 628.5,1405.4C636.2,1407.9 660.3,1421.3 665.5,1425.8C667.3,1427.4 674.3,1431.7 681.1,1435.3C688.4,1439.2 695.1,1443.5 697.4,1445.9C699.8,1448.4 703.3,1450.6 706.3,1451.6C709.5,1452.7 713.3,1455.2 717.3,1459C720.7,1462.1 727.4,1467.3 732.2,1470.4C737,1473.5 742.6,1478.2 744.7,1480.7C750.3,1487.5 783.1,1519.9 786.3,1521.8C787.8,1522.8 790.5,1525.7 792.2,1528.3C793.9,1531 799.1,1536.3 803.7,1540.2C812.5,1547.6 816.1,1552.5 818,1559.8C818.7,1562.4 820.6,1565.6 822.7,1567.7C824.6,1569.7 827,1573.2 828.1,1575.7C829.1,1578.1 831.6,1582.5 833.5,1585.4C837.5,1591.5 840,1597.1 840,1600.1C840,1601.3 842,1606.4 844.4,1611.4C846.9,1616.4 849.2,1622.8 849.6,1625.5C850.5,1631.9 851.2,1633.2 856.6,1638.2C863.3,1644.3 864.3,1647.5 863.6,1659.5C863.1,1668.8 863.3,1670.1 866.1,1678C867.8,1683 869.5,1690.2 870,1695.5C870.5,1700.5 871.5,1707.6 872.1,1711.4C872.6,1715.3 873,1725.2 872.8,1733.6C872.5,1748.1 872.4,1749 870.1,1751.4C867.9,1753.7 866.9,1754 860.5,1754C854.7,1754 852.8,1753.6 850.6,1751.9Z" style="fill-rule:nonzero;"/>
        <path d="M1127.4,1752.9C1123,1750.7 1122,1747.1 1122.1,1732.8C1122.1,1725.5 1122.5,1716.4 1123.1,1712.5C1123.6,1708.7 1124.4,1701.5 1124.9,1696.5C1125.4,1691 1126.9,1684.5 1128.6,1680C1131,1673.6 1131.5,1670.5 1131.9,1658.8L1132.5,1645.2L1138.6,1638.8C1144.1,1633.1 1144.8,1631.9 1145.5,1627.1C1146.3,1621.2 1147.6,1617.5 1151.9,1609C1153.5,1606 1155,1601.4 1155.4,1598.8C1155.9,1595.7 1157.7,1591.6 1160.8,1586.8C1163.4,1582.8 1166.4,1577.6 1167.4,1575.3C1168.4,1573 1170.7,1569.7 1172.6,1567.9C1174.7,1565.9 1176.5,1562.7 1177.4,1559.6C1178.8,1554.9 1181.5,1551.9 1215.2,1518.3C1235.2,1498.3 1252.9,1481.2 1254.5,1480.3C1263.9,1474.8 1270.9,1469.9 1276.6,1464.8C1280.1,1461.6 1283.8,1459 1284.9,1459C1287.2,1459 1295.3,1453.7 1301.8,1447.9C1306.3,1443.9 1308.5,1442.7 1323,1436.4C1326.6,1434.8 1331.3,1431.9 1333.5,1429.9C1335.7,1427.9 1339.5,1425 1341.9,1423.4C1344.3,1421.8 1348.1,1419.3 1350.4,1417.8C1358.1,1412.7 1362.2,1410.9 1367.8,1410C1371.9,1409.3 1374.2,1408.2 1376.5,1406C1380.1,1402.5 1392.4,1398 1398.3,1398C1400.9,1398 1403.4,1397.2 1405.4,1395.7C1407.1,1394.4 1411.7,1391.9 1415.5,1390.1C1419.4,1388.3 1424.3,1386 1426.5,1385C1428.7,1384 1434.1,1382.4 1438.5,1381.5C1442.9,1380.5 1447,1379.4 1447.5,1379C1448.1,1378.5 1451.4,1377.6 1455,1377C1458.6,1376.3 1463.6,1374.7 1466.1,1373.4C1468.7,1372.1 1471.8,1371 1473.1,1371C1474.3,1371 1476.1,1370.3 1477,1369.5C1477.9,1368.7 1481.5,1367.6 1485.1,1367C1495.2,1365.4 1502.4,1363.9 1503.5,1363.1C1504.6,1362.2 1532.3,1357.5 1548.5,1355.5C1551.3,1355.1 1556,1354 1559,1352.9C1566.9,1350.2 1584.9,1349.1 1629,1348.8C1662.5,1348.5 1668.4,1348.7 1674.5,1350.2C1678.4,1351.1 1685.1,1352.6 1689.5,1353.3C1704.1,1356 1724.8,1360.8 1727.7,1362.3C1729.3,1363.2 1733.2,1364.5 1736.4,1365.3C1739.6,1366.2 1746.1,1369.1 1750.8,1371.7C1755.6,1374.4 1762.9,1378.4 1767,1380.4C1774.9,1384.5 1787.3,1393 1790.2,1396.4C1791.2,1397.6 1794.8,1404.1 1798.2,1411C1803.8,1422.5 1804.5,1424.4 1805.6,1434C1806.3,1439.8 1806.9,1446.8 1807,1449.5C1807.1,1454.4 1809.1,1461.1 1814.4,1474C1826.7,1503.6 1825.7,1499.9 1826.5,1517.5C1827,1526.3 1827.3,1540 1827.4,1548C1827.4,1560.4 1827.1,1563 1825.5,1566C1824.4,1568.1 1823.4,1572.6 1823,1577.5C1821.5,1595.9 1812.4,1619.5 1801.3,1634C1794,1643.4 1764.1,1674 1762.1,1674C1759.3,1674 1747.5,1678.3 1745.5,1680.1C1744.4,1681.1 1741.5,1682.2 1739,1682.6C1736.5,1683 1734,1683.7 1733.3,1684.2C1732.6,1684.8 1725,1685.4 1716.3,1685.7C1698.2,1686.3 1675,1684.2 1663.5,1680.8C1652.1,1677.5 1627.2,1660.2 1623.5,1653C1621.4,1648.9 1621.6,1643.7 1624,1641.5C1625.8,1639.9 1627.6,1639.8 1643.7,1640.4C1653.5,1640.7 1666.9,1641.3 1673.5,1641.6C1684,1642.1 1686.7,1641.9 1694.5,1640C1700.9,1638.4 1704.4,1636.9 1706.5,1635C1708.2,1633.5 1710.9,1631.5 1712.5,1630.7C1714.2,1629.9 1722.3,1622.3 1730.5,1613.8C1743.5,1600.5 1746.2,1597.2 1751,1588.5C1754,1583 1758.2,1573.4 1760.2,1567.1C1763.4,1557.5 1764,1554.5 1764,1547.1C1764,1536.3 1761.8,1526.1 1758.4,1520.2C1756.9,1517.7 1754,1512.2 1751.9,1508C1747.8,1499.8 1746,1498.1 1732,1488.8C1720.8,1481.3 1713.8,1478.2 1703.2,1476C1698.4,1475 1693.2,1473.7 1691.7,1473.1C1688.4,1471.8 1659.4,1471.6 1658.6,1472.9C1658.3,1473.3 1656.5,1474 1654.5,1474.3C1647.9,1475.4 1638.4,1481 1632.2,1487.4C1626.7,1493.1 1626.3,1493.9 1625.6,1499.5C1624.9,1505.6 1626.1,1510.8 1629.2,1516C1629.9,1517.2 1634,1520.2 1638.3,1522.7C1642.6,1525.2 1647.4,1528.5 1649,1530.2C1651.6,1532.8 1652,1533.9 1652,1538.9C1652,1544.3 1651.8,1544.8 1647.7,1548.8L1643.4,1553L1628.2,1553C1619.8,1553 1609.9,1552.6 1606.2,1552.1C1602.5,1551.5 1595.7,1550.6 1591,1550C1577.7,1548.2 1575.3,1546.3 1572.1,1535.4C1569.8,1527.7 1569,1526.8 1561.5,1522.5C1558.8,1521 1554,1517.8 1551,1515.5C1543.3,1509.5 1520.8,1498.5 1513.5,1497.1C1510.2,1496.4 1505.7,1495.3 1503.5,1494.5C1492.9,1490.8 1487.1,1490 1470.7,1490C1458.2,1490 1453.4,1490.4 1450.6,1491.5C1448.6,1492.4 1442.1,1493.7 1436.3,1494.6C1424,1496.3 1422.7,1496.5 1414,1499.2C1410.4,1500.3 1405.5,1501.5 1403,1502C1394.6,1503.6 1382.2,1507.7 1379.6,1509.8C1378.2,1510.9 1374.6,1512.3 1371.7,1513C1366.8,1514.1 1359.5,1517.3 1342.5,1525.6C1338.7,1527.5 1335,1529 1334.4,1529C1333.8,1529 1332.5,1529.9 1331.5,1531C1330.5,1532.1 1329.2,1533 1328.5,1533C1327.8,1533 1326.5,1533.9 1325.5,1535C1324.5,1536.1 1321.4,1537.7 1318.7,1538.5C1315.5,1539.4 1311.8,1541.7 1308.4,1544.7C1299.2,1553 1295.7,1555.6 1289.5,1559.1C1285.1,1561.6 1275.1,1570.8 1251.2,1594.4C1233.4,1612.1 1218.1,1627.8 1217.3,1629.5C1216.4,1631.1 1211.9,1637.9 1207.3,1644.4C1202.6,1651 1198.6,1657 1198.3,1657.7C1197.9,1658.6 1198.9,1659 1201.7,1659C1207,1659 1209.3,1660.9 1213.6,1669C1215.6,1672.9 1217.7,1676 1218.3,1676C1219,1676 1230.7,1664.8 1244.5,1651C1258.3,1637.3 1270.2,1626 1270.9,1626C1271.7,1626 1274.5,1624 1277.1,1621.5C1279.7,1619 1282.7,1617 1283.7,1617C1284.7,1617 1287.1,1616.2 1289,1615.1C1290.9,1614.1 1294.5,1612.9 1297,1612.5C1301.6,1611.7 1302.4,1611.2 1318.8,1596.4C1323.6,1592.1 1327.8,1589.4 1333.5,1587C1337.9,1585.2 1342.2,1583.1 1343,1582.4C1343.8,1581.7 1347.4,1580.7 1351,1580C1354.6,1579.4 1358.6,1578.3 1360,1577.5C1361.4,1576.8 1365.1,1575.4 1368.4,1574.5C1371.6,1573.6 1375.7,1572 1377.4,1571C1379.1,1570 1383.2,1568.1 1386.5,1566.9C1389.8,1565.7 1393.4,1564.1 1394.5,1563.4C1398.4,1560.9 1435.8,1554 1445.6,1554C1450.6,1554 1462.7,1553.1 1472.6,1552C1491.5,1549.9 1513.2,1549.5 1521.5,1551.1C1527.2,1552.2 1541.5,1553.7 1554,1554.6C1564.9,1555.4 1585.1,1560.2 1593.2,1564C1596.7,1565.7 1602.3,1567.5 1605.5,1568C1608.8,1568.6 1614.3,1569.8 1617.8,1570.7C1623.2,1572.1 1628.7,1572.2 1659.5,1571.7L1695,1571.1L1695,1574.1C1695,1580.5 1688,1591.1 1674.6,1604.8C1667.7,1611.8 1663.9,1615 1662.3,1615C1661.1,1615 1658.2,1615.9 1656,1617.1C1651.5,1619.5 1639.6,1621.5 1621,1623.1C1611,1623.9 1607.7,1624.6 1604.5,1626.5C1598,1630.3 1592.3,1636.9 1589.4,1644C1585.7,1653.1 1586.4,1658.9 1593,1673.3C1597.4,1683 1598.8,1685 1604.7,1690.4C1608.3,1693.7 1613,1697.8 1614.9,1699.3C1619.9,1703.3 1620.9,1705.6 1621,1713.1C1621,1718.3 1620.6,1720.3 1618.9,1722.4C1616.9,1725 1616.8,1725 1603.2,1725C1595.2,1725 1586.2,1724.4 1581.7,1723.5C1577.4,1722.7 1572.4,1722 1570.7,1722C1568.8,1722 1562.2,1719.3 1554.2,1715.3C1539.1,1707.7 1537.4,1706.1 1525.2,1688C1521.3,1682.2 1516,1675.4 1513.3,1672.8C1507.8,1667.4 1491.3,1656 1489.2,1656C1488.3,1656 1486.1,1654.8 1484.1,1653.3C1482.1,1651.7 1478.7,1649.7 1476.5,1648.6C1468.6,1645 1443.3,1636.9 1436,1635.7C1420.6,1633.2 1370.1,1636.4 1358.8,1640.6C1356.4,1641.4 1353.4,1642.4 1352,1642.7C1348.2,1643.5 1344.2,1645.1 1335.5,1649.6C1331,1651.9 1325,1654.5 1322,1655.5C1315.1,1657.7 1306.8,1662.2 1301,1667C1296.9,1670.4 1293.2,1672.8 1285.9,1677C1281.8,1679.3 1271.4,1687.7 1262.9,1695.5C1255.4,1702.4 1247.5,1709 1246.8,1709C1245.9,1709 1220.2,1734.9 1216.2,1739.8L1211.9,1745L1204.2,1745C1198.4,1745 1195.8,1744.5 1193.7,1743.2C1188.7,1739.9 1188.1,1738.2 1188,1728.4C1188,1718.3 1188.8,1716.3 1198.7,1700.3L1203.1,1693L1197.9,1684.4C1194.2,1678.2 1192.6,1674.4 1192.1,1670.7L1191.5,1665.6L1186.4,1672.5C1177.9,1684.2 1171.5,1694.3 1169.6,1699C1168.6,1701.5 1166.9,1705.1 1165.7,1707C1163.3,1710.7 1160.6,1717.3 1155.6,1731.5C1152.3,1740.5 1148.1,1749 1145.2,1752.3C1144,1753.6 1142.2,1754 1136.6,1753.9C1132.7,1753.9 1128.6,1753.4 1127.4,1752.9Z" style="fill-rule:nonzero;"/>
        <path d="M986.7,1459.1C973.6,1451.7 960.9,1434 959.3,1420.8C958.7,1415.6 959.5,1411 961.1,1411C961.7,1411 963.6,1410.4 965.3,1409.6C967.8,1408.5 976.1,1408.1 1000.7,1407.6C1038.3,1407 1036,1406.4 1036,1417.8C1036,1427.7 1030.6,1439 1021.1,1449.2C1010.5,1460.5 1006.6,1463 999.3,1463C994.5,1462.9 992.4,1462.3 986.7,1459.1Z" style="fill-rule:nonzero;"/>
        <path d="M988.8,1396.2C982.2,1393.9 975.5,1388.3 972.9,1383.2C971.7,1380.8 969,1377.2 966.8,1375.2C964.7,1373.2 961.2,1368.1 959,1363.7C955.4,1356.6 955,1355 955,1348.5C955,1341.6 955.2,1341 958,1338.6C959.7,1337.2 963,1335.6 965.3,1335C967.6,1334.4 970.3,1333.5 971.2,1333C974.2,1331.3 985.3,1331.8 989.1,1333.8C992,1335.3 995.6,1335.5 1015.5,1335.5L1038.4,1335.5L1039.8,1338C1040.6,1339.6 1041,1343.2 1040.8,1348C1040.4,1357.4 1036.3,1366.7 1029.2,1374.3C1026.5,1377.1 1023.3,1381.3 1022.2,1383.5C1021.1,1385.7 1018.2,1389.4 1015.8,1391.8C1012.1,1395.4 1010.4,1396.2 1005.4,1397C997.5,1398.3 994.4,1398.2 988.8,1396.2Z" style="fill-rule:nonzero;"/>
        <path d="M650.9,1379.7C648.9,1378 645.8,1375.3 643.9,1373.9C642,1372.5 638.5,1367.8 636.1,1363.5C631,1354.2 627.1,1349.4 612.7,1334.6C606.7,1328.5 599.5,1319.9 596.5,1315.5C593.6,1311.1 589.5,1305.9 587.5,1304C585.4,1302.1 578.6,1294.9 572.2,1288C565.8,1281.1 557.4,1272.9 553.4,1269.8C549.4,1266.7 545.9,1263.6 545.6,1263.1C545.2,1262.5 541.2,1259.6 536.7,1256.6C526.7,1249.9 526.5,1249.8 521.3,1243.4C518.7,1240.2 515.8,1238 513.8,1237.4C511.2,1236.6 510.2,1235.6 509,1232.3C506.8,1226.4 504.5,1224.3 498.7,1223C493.1,1221.8 485.8,1218 475.9,1210.9C472.2,1208.3 467.7,1205.4 465.9,1204.4C464,1203.5 460.7,1201.3 458.5,1199.5C454.8,1196.5 441.3,1191.4 432,1189.5C430.1,1189.1 426.9,1187.9 424.9,1187C423,1186 417.1,1184.7 411.9,1184.1C406.3,1183.4 399,1181.7 394,1179.9C389.3,1178.2 382.6,1176.5 379,1176.1C375.4,1175.8 371.4,1174.7 370,1173.7C368.7,1172.8 366.3,1172 364.7,1172C363.2,1172 360.3,1171.3 358.2,1170.4C356.2,1169.5 352.5,1168.2 350,1167.5C347.5,1166.8 339,1163.3 331,1159.7C318.6,1154.1 315.5,1152.3 309.5,1146.8C305.7,1143.2 301.4,1139.7 300,1139C296.4,1137.2 274.6,1114.6 269.3,1107.2C263.6,1099.2 262.5,1093.3 266,1089.5C268.2,1087.1 268.9,1087 280.5,1087L292.7,1087L303.3,1075.8L302.7,1070.2C302.3,1067.1 301.1,1061.8 300,1058.5C298.8,1055.2 297.5,1050.5 297,1048C296.1,1043 292.5,1033.6 288,1024.5C286.4,1021.2 284.2,1016.4 283.2,1013.9C282.1,1011.4 279.6,1007 277.7,1004.1C274.2,999.1 272,993.5 272,989.8C272,986.5 270.7,985 266.9,984C264,983.2 262.3,981.9 260.5,979C259.2,976.9 257.1,974.5 256,973.7C254.9,972.9 249,966.8 243,960.1C233.7,949.8 232,947.4 232,944.6C232,940.2 235.5,936.9 245,932.4C247.9,931 252.9,930.6 272,930.3L295.5,929.8L308,936.4C314.9,940.1 323.7,944.6 327.5,946.5C331.4,948.4 338.8,953.4 344,957.6C349.2,961.8 356.4,966.6 359.9,968.2L366.3,971.1L371.7,965.8C378,959.6 380.5,955.4 383.6,945C384.9,940.9 387.2,933.2 388.8,928C393.7,911.9 397.9,904.9 409.8,892.8C415.6,886.8 420.9,882 421.5,882C422.1,882 425,879.5 428,876.4C434,870.3 439.3,867.3 448.5,864.6C451.8,863.6 456.2,862 458.2,860.9C464.3,857.7 471.2,856.8 494,856.3L515.5,855.9L523.5,860.5C527.9,863.1 533.8,866.3 536.5,867.7C549.4,874.3 558.7,886.8 561.7,901.5C564.2,914.1 561,945.6 556.3,953C552.2,959.6 549.9,961 543.8,961C538.5,961 537.9,960.8 536.6,958.2C535.8,956.7 534.9,952.8 534.5,949.5C533.2,938.2 532.4,936.3 526.7,932.1C523.8,930 519.5,927.3 517,926C513,924 512.4,923.9 510.1,925.3C508.7,926.1 505.5,927.1 503.1,927.5C499.4,928.1 497.4,929.5 489.9,936.7C479.7,946.6 477.2,950.4 472.7,963.2C469.7,972 469.5,973.2 469.6,986.1C469.7,999 469.9,1000.2 473.3,1010.2C475.4,1016.1 477,1021.5 477,1022.2C477,1024.3 486.9,1043.5 492,1051.4C495,1056 498,1059.2 501,1061.1L505.5,1063.9L508.4,1058.2C510.1,1055.1 511.6,1050.5 511.9,1048L512.5,1043.5L521,1043.2C533.4,1042.9 533.9,1043.3 537.2,1056C538.7,1061.8 540,1068.2 540,1070.3C540,1074.9 541.8,1078.5 545.9,1082.4C547.6,1084.1 549,1086.1 549,1087.1C549,1088 550.6,1090.7 552.5,1093C554.4,1095.3 556,1097.9 556,1098.7C556,1101.6 562.1,1110.5 568.1,1116.2L574,1121.9L573.4,1112.4L572.7,1103L576.8,1103C581.9,1103 587.3,1107.3 589.1,1112.8C589.7,1114.8 591.8,1117.9 593.6,1119.6C595.5,1121.4 597,1123.5 597,1124.3C597,1125.2 598.5,1127.1 600.4,1128.7C605.7,1133 611,1143.7 611,1149.9L611,1155L606.6,1155C604.1,1155 601.9,1154.6 601.6,1154.1C601.3,1153.6 599.9,1153 598.4,1152.7L595.9,1152.3L598.5,1155C599.9,1156.5 601.5,1159.4 602.1,1161.4C603,1164.5 603.9,1165.5 607.6,1167.1C611.6,1168.9 612,1169.4 612,1172.6C612,1175.4 612.6,1176.4 615.2,1178C617.5,1179.4 619,1181.5 620.6,1185.8C625,1197.5 628.3,1203.6 632.6,1207.6C635.5,1210.4 637,1212.6 637,1214.2C637,1215.6 638.1,1218.2 639.5,1220.1C640.8,1222 643.2,1225.3 644.7,1227.5C646.2,1229.7 648.5,1232.8 649.8,1234.4C652.6,1237.9 660.2,1252.9 662,1258.5C662.7,1260.7 663.9,1263.4 664.6,1264.5C667,1268.3 670.3,1284 673.9,1308.7C675.3,1317.9 675.3,1354.5 673.9,1363C672.9,1369.7 669.7,1379.5 667.8,1381.7C667.2,1382.5 664.4,1383 660.6,1383C655.2,1382.9 654.1,1382.6 650.9,1379.7ZM581.9,1136.1C579.6,1131.9 577,1130 577,1132.5C577,1134.9 578.7,1138.4 581.1,1141C583.2,1143.1 583.5,1143.2 583.8,1141.7C584,1140.8 583.1,1138.2 581.9,1136.1Z" style="fill-rule:nonzero;"/>
        <path d="M1327.8,1381.3C1322.6,1375.5 1320,1360.3 1320,1336.5C1320,1311.7 1325,1277.8 1330.6,1264.7C1338.7,1245.5 1344.8,1234.8 1354.2,1222.8C1355.8,1220.9 1357.5,1217.8 1358.1,1215.9C1358.8,1214 1360.8,1210.9 1362.6,1209C1365.9,1205.6 1371,1195.9 1374.4,1186.9C1375.4,1184.3 1377.7,1180.7 1379.6,1178.9C1381.5,1177.1 1383,1175.2 1383,1174.6C1383,1174.1 1385.5,1171.1 1388.5,1167.9C1391.5,1164.7 1394,1161.4 1394,1160.4C1394,1159.4 1395.2,1157.3 1396.8,1155.7C1399,1153.3 1399.1,1152.9 1397.5,1153.5C1396.4,1154 1392.9,1154.6 1389.8,1154.8L1384,1155.2L1384,1150.8C1384,1145.5 1389.8,1133.2 1394,1129.7C1395.5,1128.4 1397.5,1126 1398.3,1124.4C1399.1,1122.8 1400.8,1120.6 1402,1119.5C1403.2,1118.4 1405.2,1115.3 1406.5,1112.5C1409.3,1106.1 1410.9,1104.8 1417,1104.2C1421.6,1103.8 1421.9,1103.9 1422.6,1106.4C1422.9,1107.8 1422.9,1110.3 1422.5,1111.8C1422.1,1113.3 1421.6,1116.4 1421.3,1118.8L1420.8,1123L1427.3,1116.3C1434.3,1108.9 1438,1103.5 1439.9,1097.9C1440.5,1095.9 1442.2,1093.2 1443.5,1092C1444.9,1090.7 1446,1089 1446,1088.2C1446,1087.4 1447.8,1084.8 1450,1082.3C1454.1,1077.6 1456,1072.9 1456,1067.2C1456,1059.3 1461,1048 1464.5,1048C1465.1,1048 1466.6,1046.9 1467.9,1045.6C1470.6,1042.7 1476.4,1040.7 1481,1041.2C1484.2,1041.5 1484.5,1041.8 1484.8,1044.8C1485,1046.6 1484.7,1048.7 1484.1,1049.4C1483.1,1050.6 1485.3,1055.9 1489.7,1062.9L1491.2,1065.2L1495.2,1061.4C1497.4,1059.2 1501,1054.8 1503.2,1051.5C1508.1,1044.2 1519,1022.4 1519,1019.9C1519,1018.9 1520.4,1014.4 1522.2,1009.8C1525.2,1001.8 1525.4,1000.9 1525.4,986.5C1525.5,972.2 1525.3,971.1 1522.4,962.9C1517.9,950.1 1511.6,939.8 1503.8,932.4C1496.5,925.6 1490.5,922.9 1486.6,924.8C1485.4,925.4 1483.1,926.3 1481.4,926.8C1479.7,927.4 1476,929.4 1473.1,931.4C1470.3,933.4 1467.6,935 1467.2,935C1464.6,935 1462.2,940 1461.1,948C1459.4,959.5 1458.4,961 1451.7,961C1446.9,961 1446.1,960.6 1442.8,957.3C1438.8,953.2 1436,947.5 1436,943.7C1436,942.3 1435.3,939.5 1434.4,937.5C1433.1,934.4 1432.9,930.4 1433.2,916.1C1433.5,899.2 1433.6,898.3 1436.4,892.3C1439.4,885.7 1447.2,878 1450.8,878C1451.8,878 1453.7,876.8 1455.1,875.4C1457.4,872.9 1467.9,867 1470,867C1470.6,867 1472.8,865.7 1474.8,864.1C1478.9,860.8 1487.8,857 1491.3,857C1492.5,857 1494.8,856.3 1496.4,855.5C1498.5,854.4 1502.9,854 1514.3,854C1528.7,854 1529.8,854.1 1539.9,857.4C1557.6,863.2 1559.7,864.4 1574.3,877.4C1580.8,883.1 1583.4,886.4 1593.6,900.7C1597.9,906.7 1606,923.5 1606,926.4C1606,927.3 1606.9,930.3 1608,933.2C1609.1,936.1 1610.7,941.2 1611.6,944.4C1614.2,954.4 1618.2,961 1625,966.8C1633,973.5 1635.5,973.6 1644.7,967.6C1648.5,965.2 1653.3,961.4 1655.5,959.1C1657.6,956.9 1660.1,955 1661,955C1662.7,955 1669.2,951.9 1671.5,950C1672.3,949.3 1675.6,947.5 1678.7,946C1681.9,944.5 1686.4,941.7 1688.8,939.7C1695.2,934.4 1703.9,932.1 1724.8,930.5C1750.7,928.4 1750.6,928.4 1757.3,932.6L1763,936.3L1763,942C1763,948.9 1763.2,948.7 1739.9,973.8C1728.2,986.3 1723,992.6 1722.5,994.8C1722.2,996.6 1720.3,1000.3 1718.4,1003C1713.1,1010.7 1699.3,1041.2 1698.3,1047.5C1698,1049.2 1696.8,1053.9 1695.5,1058C1692,1069.3 1691.5,1074.5 1693.4,1077.5C1696.3,1081.9 1699.8,1082.9 1714.9,1083.6C1728.4,1084.3 1729.2,1084.4 1730.7,1086.7C1732.6,1089.6 1732,1097.2 1729.4,1102.2C1726.4,1108 1716.7,1119.1 1697.9,1138C1682.4,1153.6 1678.8,1156.8 1675,1157.9C1668.8,1159.8 1657,1164.9 1654,1167C1652.6,1167.9 1648.9,1169.2 1645.7,1169.9C1642.4,1170.6 1638.3,1172.2 1636.3,1173.5C1631.7,1176.7 1623.4,1179 1616.8,1179C1613.3,1179 1608.6,1180.1 1603,1182.1C1598.3,1183.8 1592.9,1185.4 1591,1185.7C1589.1,1185.9 1586.6,1186.5 1585.5,1187C1584.4,1187.5 1581.5,1188.1 1579,1188.5C1576.6,1188.8 1574,1189.5 1573.4,1190.1C1572.7,1190.7 1567.8,1191.7 1562.6,1192.5C1556.1,1193.4 1551.6,1194.6 1548.4,1196.4C1545.8,1197.8 1542.9,1199 1541.9,1199C1540.8,1199 1538.3,1200.5 1536.3,1202.4C1534.2,1204.2 1530.9,1206.5 1529,1207.5C1527.1,1208.5 1523,1211.2 1520,1213.5C1513.7,1218.3 1502,1224.4 1496.9,1225.5C1494.3,1226.1 1490.2,1229.5 1479.5,1240.4C1471.4,1248.6 1462.9,1256.1 1459.3,1258.3C1455.9,1260.5 1449.6,1265.2 1445.3,1268.8C1431,1281.2 1402.8,1309.4 1398.4,1316C1396,1319.6 1387.3,1329.7 1379,1338.5C1368,1350.3 1363,1356.4 1360.3,1361.5C1358.2,1365.7 1353.8,1371.4 1349.7,1375.8L1342.7,1383L1336,1383C1330.9,1383 1328.9,1382.6 1327.8,1381.3ZM1416.6,1137.8C1418.5,1134.1 1418.4,1130.9 1416.5,1131.7C1414.9,1132.2 1412.5,1137.1 1411.3,1141.9L1410.7,1144.5L1413,1142.5C1414.2,1141.4 1415.8,1139.3 1416.6,1137.8Z" style="fill-rule:nonzero;"/>
        <path d="M236.5,1338.1C233.8,1337.6 229.7,1336.8 227.5,1336.1C225.3,1335.5 221.9,1335 219.9,1335C216,1335 196.6,1325.6 192,1321.5C190.6,1320.3 187.2,1317.7 184.5,1315.9C178.9,1312.1 169.2,1302 164.2,1294.8C162.4,1292.2 159.2,1286.4 157,1281.9C153.3,1274.2 153,1273 153,1265C153,1260.2 152.5,1253.8 151.9,1250.8C150.1,1242 152.2,1210.7 155,1204.3C157.2,1199.3 173.3,1182 175.7,1182C176.4,1182 178.8,1180.4 180.9,1178.4C184.5,1175.3 185.4,1174.9 189.7,1175.2L194.5,1175.5L194.8,1180C195,1183.7 194.5,1185.4 192.4,1188.5C190.9,1190.7 188.9,1195.3 187.9,1198.8C186.2,1204.6 186.2,1205.7 187.6,1213.8C190.4,1229.9 192.3,1235.1 197.4,1241.5C209.4,1256.5 208.9,1256.1 219.4,1261L229.5,1265.8L249.5,1266.9C260.5,1267.5 272.7,1268 276.6,1268L283.7,1268L290,1262.2C296,1256.7 296.2,1256.3 295,1254C294.3,1252.6 293,1250.6 292,1249.5C289,1246 281.2,1234.4 279,1230.1C277.3,1226.7 277,1224.5 277.2,1218.2L277.5,1210.5L283.2,1210.2C288.2,1209.9 289.4,1210.3 294.2,1213.4C297.2,1215.2 300.2,1217.5 300.9,1218.4C303.5,1221.5 313.1,1226.2 318.8,1227.1C321.9,1227.6 328.6,1228.9 333.5,1230.1C341.8,1232.1 346.1,1232.3 386.5,1232.9C410.7,1233.2 431.1,1233.9 431.8,1234.3C432.5,1234.8 438.6,1235.5 445.3,1235.9C457.2,1236.6 457.8,1236.8 467,1241.3C472.3,1243.9 477.3,1246 478.2,1246C480.4,1246 496.8,1249.8 500.5,1251.2C511.9,1255.5 539.5,1269.4 543.8,1273.1C545.6,1274.7 548.8,1276.9 550.9,1277.9C555.9,1280.5 572.7,1299 575.3,1304.9C576.7,1308 577.5,1312.3 577.8,1318C578.1,1325.7 578,1326.8 575.8,1330L573.4,1333.5L553.5,1333.5L542,1327.8C529.3,1321.5 519.9,1318.4 508.8,1317C499.3,1315.8 486.7,1315.7 485.4,1316.9C484,1318.4 468.2,1319.3 459.7,1318.5C453.7,1318 451.6,1317.3 449.5,1315.4C448.1,1314.1 446.6,1313 446.3,1313C445.9,1313 443.6,1314.7 441.1,1316.8C434.8,1322 427.2,1324.3 418.5,1323.8C404.9,1322.9 360,1325 349,1327C343.2,1328 332.7,1329.2 325.5,1329.5C309.3,1330.3 303.3,1331.4 294.5,1335.3L287.5,1338.4L264.5,1338.6C251.9,1338.8 239.3,1338.5 236.5,1338.1Z" style="fill-rule:nonzero;"/>
        <path d="M1728.5,1338.4C1726.9,1338.2 1721.2,1337.5 1716,1336.9C1708.9,1336.1 1704.5,1334.9 1698.6,1332.3C1691.3,1329 1689.8,1328.7 1676.1,1327.9C1658.8,1326.9 1654,1326.4 1644,1324.5C1635.8,1322.9 1606.1,1322.4 1584.8,1323.5L1572.2,1324.1L1564.2,1320.1C1559.8,1317.9 1555.4,1314.9 1554.3,1313.4L1552.3,1310.7L1547.8,1314.8L1543.3,1319L1534.6,1319C1529.8,1319 1522.5,1318.3 1518.3,1317.4C1512.9,1316.3 1510,1316.1 1508.6,1316.9C1505.9,1318.1 1489.6,1321 1484.9,1321C1479.2,1321 1462.7,1324.8 1460,1326.8C1458.6,1327.8 1455.4,1329.4 1452.8,1330.4C1450.2,1331.4 1447.8,1332.6 1447.5,1333.1C1446.7,1334.4 1425.6,1334.2 1422.7,1332.9C1419.3,1331.4 1417.8,1328.4 1417.3,1321.9C1416.3,1311.1 1417.9,1307.8 1429.3,1296.2C1434.9,1290.5 1440.9,1285.2 1442.7,1284.4C1444.5,1283.5 1448.4,1280.6 1451.5,1277.9C1454.6,1275.2 1458.3,1272.7 1459.8,1272.4C1461.3,1272 1464.2,1270.2 1466.3,1268.4C1468.3,1266.5 1470.5,1265 1471.1,1265C1471.7,1265 1476.3,1263.3 1481.3,1261.1C1493.5,1256 1496.3,1255.1 1504,1253.4C1513.2,1251.5 1518.4,1249.7 1526.8,1245.6C1531.8,1243.1 1535.4,1242 1538.5,1242C1540.9,1242 1543.1,1241.6 1543.4,1241.2C1543.7,1240.7 1547.7,1240 1552.2,1239.7C1556.8,1239.3 1563,1238.3 1566,1237.5C1569.9,1236.4 1578,1235.7 1593.5,1235.3C1607.4,1235 1616,1234.3 1616.9,1233.6C1617.9,1232.8 1627.8,1232.5 1649.1,1232.5C1679.6,1232.5 1679.8,1232.5 1682.2,1230.3C1683.5,1229 1685.1,1228 1685.6,1228C1686.1,1228 1689.7,1225.7 1693.5,1223C1697.4,1220.2 1702.1,1217.2 1704,1216.4C1705.9,1215.5 1708.5,1213.9 1709.6,1212.8C1711.1,1211.5 1712.8,1211 1715.1,1211.2L1718.5,1211.5L1718.8,1217.9C1719.1,1223.4 1718.7,1225.2 1716.1,1230.4C1714.4,1233.8 1710.1,1240.4 1706.5,1245.3C1702.9,1250.1 1700,1254.7 1700,1255.5C1700,1257.4 1708.6,1263 1711.4,1263C1712.6,1263 1717.7,1263.9 1722.9,1265C1730.6,1266.6 1736.2,1267 1753.6,1267L1774.9,1267L1780.8,1261.5C1784.1,1258.5 1788.7,1253.4 1791.1,1250.3C1793.5,1247.1 1797.1,1242.5 1799.1,1240C1802.9,1235.4 1805.5,1227.4 1808,1212.9C1809.5,1204.5 1808.1,1197.2 1803.9,1190.5C1801.4,1186.6 1801,1184.9 1801.2,1180.6L1801.5,1175.5L1806.2,1175.2C1811.3,1174.9 1812.6,1175.4 1820.6,1180.7C1826.6,1184.6 1837.2,1197 1840,1203.2C1842.2,1208.3 1844.5,1222.8 1843.7,1226.8C1843.4,1228.3 1843.6,1232.1 1844.2,1235.2C1845.2,1240 1845.1,1242.5 1843.7,1249.8C1842.8,1254.7 1842,1262.2 1842,1266.6C1842,1273.3 1841.5,1275.5 1839,1280.8C1833.8,1291.9 1827.5,1300.4 1815.2,1313.1C1806,1322.7 1802.2,1325.9 1799.2,1326.8C1797,1327.5 1793.6,1329.1 1791.6,1330.5C1789.5,1331.9 1785.5,1334.3 1782.7,1335.7C1777.5,1338.4 1777.4,1338.5 1754.5,1338.6C1741.9,1338.7 1730.2,1338.6 1728.5,1338.4Z" style="fill-rule:nonzero;"/>
        <path d="M989.6,1312.7C986.8,1309.7 983.8,1302 981.6,1292C980.2,1285.8 961.2,1261.9 951.5,1254.1C941.6,1246.2 938.3,1242.7 931.2,1232.3C921.5,1218 916,1205.8 914.8,1195.8C914.3,1191.2 913.2,1185 912.4,1181.9C910.3,1173.7 910.7,1163.8 913.6,1149.9C915.6,1139.8 916.9,1136.1 920.5,1130C922.8,1125.9 925.1,1121.4 925.5,1120C926.8,1115.4 934.8,1104.6 941.7,1097.9C950.9,1089 957.2,1086 966.7,1086L974,1086L974,1094.3C974,1102.2 975.6,1110 979.6,1121.5C980.5,1124.3 981.7,1127.7 982.2,1129.1C982.7,1130.5 984.9,1132.7 987.1,1133.9C989.3,1135.2 992.9,1138 995.1,1140.3L999,1144.4L1006,1137.5C1009.9,1133.6 1013.3,1129.4 1013.6,1128C1013.9,1126.6 1015.2,1122.6 1016.5,1119C1019.8,1110.4 1022,1100 1022,1093.8C1022,1086.8 1023.2,1086.1 1035.2,1086C1044.6,1086 1045.1,1086.1 1048.2,1088.9C1053.9,1094 1065.7,1111.1 1069.7,1120C1071.1,1123 1073.7,1128 1075.6,1131.1C1080.5,1139.3 1084.3,1157.7 1083.7,1170.8C1083.5,1176.1 1082.8,1183 1082.2,1186C1081.6,1189 1080.7,1194.5 1080.1,1198.2C1079.5,1203 1077.7,1208 1074.1,1215.2C1066.3,1231 1057.6,1242.2 1042,1256.9C1028.8,1269.4 1014,1287.7 1014,1291.4C1014,1295.2 1008,1310.4 1005.4,1313.1C1003.1,1315.5 1001.8,1316 997.7,1316C993.4,1316 992.3,1315.6 989.6,1312.7Z" style="fill-rule:nonzero;"/>
        <path d="M711.9,1214.5C711.4,1214.1 704.3,1212.3 693.1,1209.9C686.7,1208.6 674.3,1201.5 668.8,1196.2C664.3,1191.9 664,1191.2 664,1186.6C664,1182.5 664.5,1181.1 666.7,1178.8C668.2,1177.3 670.3,1176 671.4,1176C674.9,1175.9 682.1,1172.2 686.6,1168C689,1165.8 691.6,1164 692.3,1164C693.9,1164 705.8,1151.9 708.5,1147.5C709.5,1145.9 711.4,1143.4 712.6,1142C713.8,1140.6 716.7,1135.2 719,1130C726.6,1112.5 732.5,1101.5 737.2,1096.1C740.5,1092.4 742.1,1089.5 742.5,1086.6C743.4,1081.2 750.3,1071.1 758.7,1062.8C765.4,1056.2 765.7,1056 775.5,1053.4C781,1052 787.4,1050.4 789.7,1049.8C792,1049.3 794.4,1048.2 795.1,1047.4C795.9,1046.4 798.6,1046 804.9,1046L813.6,1046L817.7,1050.3C824.2,1057 825.4,1060.2 825.5,1070.5C825.5,1075.5 825.1,1081.4 824.7,1083.6C823.5,1089.6 825.3,1091 833.9,1091C840.2,1091 840.8,1090.8 843.7,1087.8C847.4,1083.8 848.7,1081.4 850.7,1074.8C851.5,1072 853.3,1068 854.7,1065.9C857,1062.5 861,1047.5 861,1042.5C861,1041.3 864.4,1037.1 869.8,1031.7C878.3,1023.3 878.8,1022.9 884,1022.3C887,1022 890.2,1021.2 891,1020.5C892,1019.7 898,1019.1 908.3,1018.7C917,1018.4 924.6,1017.7 925.3,1017.2C926,1016.7 934.6,1015.9 944.6,1015.5C964.8,1014.7 965.2,1014.8 969.6,1021.2C971.6,1024 972.3,1026.5 972.7,1032.2C973.3,1039.5 973.2,1039.7 970,1043.3C966.4,1047.4 958.6,1053 956.5,1053C953.9,1053 946.5,1056.8 944.4,1059.1C938.7,1065.7 919.6,1101.9 916.7,1111.6C912,1127.4 901.5,1139.8 885.3,1148.8C884,1149.5 879.5,1150 875,1150C867.7,1150 866.7,1149.7 864.5,1147.5C862.4,1145.5 862,1144.1 862,1139.6C862,1135.3 861.5,1133.5 859.6,1131.3L857.2,1128.6L848.4,1136.7C837.3,1146.8 827.7,1157.1 818,1169.1C808.4,1181 797.5,1192.6 793,1195.6C791.1,1196.9 787.5,1199.4 785,1201.1C776.9,1207 762.4,1212.1 748.7,1213.9C740.9,1215 712.8,1215.4 711.9,1214.5Z" style="fill-rule:nonzero;"/>
        <path d="M1254,1212.9C1232.2,1209.9 1219.6,1205.9 1210.8,1199.4C1207.9,1197.2 1203.6,1194.1 1201.4,1192.5C1187.9,1182.8 1176.8,1170.7 1166.2,1154.3C1164.7,1152 1158.9,1145.9 1153.3,1140.6C1142,1130.1 1139.3,1129 1135.2,1133.3C1133.5,1135 1133,1136.9 1133,1140.6C1133,1148 1131.2,1150 1124.3,1150C1120,1150 1116.7,1149.1 1109.3,1145.9C1093.7,1139 1081.9,1125.9 1078.6,1111.5C1077.6,1107.3 1064.3,1080.7 1056.6,1067.6C1049.4,1055.2 1046.9,1052.9 1034.5,1047.6C1022.7,1042.5 1021.7,1041.3 1022.2,1033.9C1022.6,1028.4 1023,1027.6 1027.4,1023.1L1032.2,1018.2L1043.9,1017C1052.1,1016.1 1063.2,1015.9 1081.7,1016.4C1107.1,1017 1108.1,1017.1 1114.7,1019.8C1120.5,1022.1 1122,1023.3 1124.7,1027.4C1126.4,1030 1129,1033.4 1130.5,1035C1133.1,1037.7 1134.6,1042.8 1137,1056.6C1137.5,1059.4 1139.2,1063.8 1140.9,1066.4C1142.5,1069.1 1144.2,1072.6 1144.6,1074.4C1145.8,1079.9 1149.9,1087 1152.5,1088C1153.9,1088.5 1157.9,1089.5 1161.5,1090.2C1167.3,1091.2 1168.3,1091.2 1169.7,1089.7C1171.2,1088.2 1171.2,1087.2 1170.1,1080C1169.4,1075.3 1169.2,1069.5 1169.6,1066.4C1170.2,1061.1 1170.5,1060.6 1177.1,1054.9C1183,1049.9 1184.6,1049 1188,1049C1190.1,1049 1192.2,1048.6 1192.5,1048C1193.5,1046.4 1210.5,1046.8 1217.3,1048.6C1225.7,1050.8 1230.4,1053.4 1233.7,1057.7C1235.2,1059.7 1238.3,1063.4 1240.5,1065.9C1242.8,1068.4 1245.1,1071.6 1245.8,1073C1246.5,1074.4 1248.2,1077 1249.5,1078.9C1250.9,1080.8 1252.3,1084.2 1252.7,1086.4C1253.1,1089.2 1254.6,1091.8 1257.5,1095C1261.1,1098.8 1273,1119.8 1273,1122.2C1273,1124 1280.4,1138.8 1283.4,1142.8C1292.5,1155.3 1294.3,1157.1 1300.9,1160.4C1304.5,1162.3 1308.6,1165 1309.9,1166.4C1311.3,1167.9 1315.9,1170.2 1321,1172.1C1330.8,1175.6 1332,1176.9 1332,1184.6C1332,1190.6 1330.3,1193.6 1323,1200.4C1315.6,1207.2 1307.6,1212 1303.5,1212C1301.9,1212 1299.2,1212.7 1297.6,1213.5C1293.6,1215.6 1271.3,1215.3 1254,1212.9Z" style="fill-rule:nonzero;"/>
        <path d="M986.9,1085.7C982.6,1082.9 979.8,1077.1 979.2,1070.2C978.8,1065.2 979,1064.6 982.1,1061.4C983.9,1059.5 985.9,1058 986.5,1058C987.1,1058 988.7,1056.9 990,1055.5C992.3,1053.1 992.9,1052.9 1001,1053.2L1009.5,1053.5L1012.8,1058.4C1015.4,1062.4 1016,1064.2 1016,1068.6C1016,1075.2 1014,1080.4 1009.8,1084.8C1006.7,1087.9 1006.3,1088 998.5,1088C991.6,1088 989.7,1087.6 986.9,1085.7Z" style="fill-rule:nonzero;"/>
        <path d="M629,1083C618.7,1081.6 604.7,1075.3 592.7,1066.5C586.5,1061.9 575.4,1046.2 574.1,1039.9C571.4,1027.7 574.4,1004.9 580,994.1C582.9,988.4 599.8,972.4 604.5,970.9C606.7,970.2 608.9,969.2 609.4,968.8C610,968.4 618,968 627.3,968C642.8,968 644.6,968.2 647.7,970.1C653.4,973.6 656,981.8 656,996C656,1005.9 654.5,1013 650.9,1020C647.1,1027.5 647,1028.9 650.3,1031.3L653,1033.4L659.1,1027.5C662.4,1024.1 666.4,1018.9 668,1015.6C670.8,1010 671,1009 671,997.6C671,986.2 669.4,973.9 666.8,966C666.2,964.1 661.5,954 656.3,943.5C649.1,928.9 645.8,923.4 642.1,919.5C639.4,916.8 636.1,912.7 634.7,910.4C632,906 623.4,897 621.9,897C620.5,897 617,889.4 617,886.2C617,884.3 618.1,882.3 620.3,880.2C623.5,877.1 623.9,877 632,877C636.9,877.1 641.5,877.6 642.8,878.3C645.1,879.6 647,881.5 671.3,905.7C685.5,920 693,929.8 696,938.5C698.4,945.3 701,950.7 704.2,955.5C705.7,957.7 708.1,963.6 709.6,968.5C711.8,976 712.4,980 712.8,992.5C713.1,1002 712.8,1010.1 712,1014.5C710,1026 704.1,1045 700.5,1051.5C696.3,1058.8 677.6,1077.6 670.6,1081.4C665.9,1083.9 665.2,1084 650.1,1083.9C641.5,1083.8 632,1083.4 629,1083Z" style="fill-rule:nonzero;"/>
        <path d="M1341.3,1083C1331.4,1082.1 1321.1,1077.6 1313.5,1070.9C1310.8,1068.4 1306.3,1064.6 1303.5,1062.3C1296.8,1056.8 1292,1047.7 1287.3,1031.4L1283.5,1018.5L1283.5,997C1283.5,976.2 1283.6,975.2 1286.3,966.8C1287.8,962.1 1289.9,957.1 1291,955.8C1293,953.2 1296.9,944.8 1300.2,936C1302,931.1 1305.1,927.6 1326.3,906.3C1342.3,890.1 1351.1,882 1352.5,882C1353.6,882 1355.6,881.3 1356.8,880.4C1358.4,879.3 1362.3,878.6 1369.1,878.3L1379,877.7L1379,882.2C1379,889.3 1376.5,893.8 1367.4,903.1C1362.8,907.9 1359,912.2 1359,912.8C1359,913.4 1356.6,916.5 1353.6,919.7C1348,925.8 1342.3,935.8 1333.1,955.7C1326.3,970.3 1323.9,982.6 1324.5,999.5C1325,1012.4 1326.3,1016.4 1332.3,1022.9C1336.3,1027.1 1342.9,1032 1344.6,1032C1345.3,1032 1346.4,1031.1 1347,1029.9C1347.9,1028.2 1347.5,1026.4 1344.3,1019.7L1340.5,1011.6L1340.5,995.9C1340.5,981.9 1340.7,980 1342.4,978.1C1343.5,976.9 1344.7,976 1345.2,976C1345.8,976 1347.3,975.1 1348.6,974.1C1350.1,973 1353.5,971.9 1357.3,971.5C1360.7,971.1 1364.5,970.2 1365.7,969.4C1367.3,968.4 1371.5,968 1380.9,968L1393.8,968L1403.3,978.3C1414.3,990.2 1416,993.2 1419.4,1006.8C1422.4,1018.4 1422.9,1035.6 1420.6,1042.3C1416.9,1052.6 1399.5,1071.7 1386.8,1079.2L1379.5,1083.5L1364.5,1083.7C1356.3,1083.7 1345.8,1083.5 1341.3,1083Z" style="fill-rule:nonzero;"/>
        <path d="M988.4,1013.8C986.4,1012 983.5,1008 982.1,1004.8C980,1000.3 977.5,997.3 969.5,990.3C958.1,980.2 954.4,977.7 948,976C942.4,974.5 935.6,970.7 933.5,967.8C932.1,965.7 932,965.9 932,972.2C932,977.9 931.6,979.3 929.3,982C926.7,985.1 926.5,985.2 919.6,984.8C913.2,984.5 911.7,984 904.5,979.6C890.8,971.3 885.7,967.3 878,958.8C867.8,947.7 865.1,943.7 862.7,936.6C861.6,933.2 859.4,928.6 857.8,926.3C856.2,923.9 854.3,920.3 853.6,918.3C852.8,916.2 851.1,912 849.7,909C844.2,896.7 839.5,871.6 840.4,858.7C841.1,846.8 842.5,837.2 843.9,833.7C844.5,832.1 845,829.5 845,827.9C845,826.2 845.9,822.8 847,820.2C848,817.6 849.6,812.6 850.5,809C852.8,799.7 861.7,785.2 870.9,775.8L878.5,768L885.1,768C890.3,768 891.9,768.4 892.4,769.6C892.7,770.5 893,777.9 893,786.1C893,795.4 893.4,802 894.1,803.3C894.8,804.5 897.6,808 900.5,811C908.7,819.7 910,823 910,835.2C910,840.9 909.3,848.7 908.4,852.5C903.2,876.8 902.8,879.4 903.5,887.9C904.1,896.5 904.7,898.5 909.4,909.7C910.9,913.1 912.5,919.4 913,923.6C913.6,928.4 915.1,933.8 916.9,937.7C918.6,941.2 920,944 920.2,944C920.4,944 920.6,938.1 920.7,930.8C920.9,923.6 921.2,917.5 921.5,917.2C921.7,916.9 926.3,916.5 931.5,916.2C940.7,915.7 941.2,915.8 943.8,918.2C951.5,925.2 967.8,934 973.3,934C974.8,934 978.2,931.4 983.5,926L991.5,918L1005.9,918L1013.2,925C1021.1,932.5 1024.2,934 1032.7,934C1037.5,934 1038.4,933.6 1043.7,929.1C1046.9,926.4 1050.8,922.8 1052.4,921.1C1055.3,918.1 1055.6,918 1064.6,918C1073.3,918 1073.8,918.1 1074.4,920.3C1075.4,924 1075.1,942 1073.9,944.3C1072.9,946.5 1072.9,946.5 1074.6,944.5C1077.4,941.1 1080.8,932.5 1082,925.9C1084.1,914.2 1085.1,910.5 1088.1,904.3C1090.7,899.1 1091.2,896.6 1091.6,887.8C1092.1,879.1 1091.8,875.6 1089.5,865C1086,848.3 1085,841.7 1085,834C1085,824.4 1086.4,820.9 1093,813.6C1102.5,803.1 1102.2,804.1 1102.3,786.8L1102.5,771.5L1105,771.2C1106.4,771 1107.9,770.4 1108.5,769.9C1109,769.4 1112.1,769 1115.5,769C1121.4,769 1121.7,769.1 1125.1,773.3C1127,775.6 1130.4,780.7 1132.5,784.5C1134.6,788.4 1137.9,793.9 1139.7,796.8C1141.6,799.6 1143.9,805.3 1144.9,809.3C1145.9,813.3 1147.2,817.6 1147.9,818.8C1149.3,821.4 1151.3,831.1 1154.1,849C1156.2,862.2 1156.2,862.7 1154.5,873.5C1153,883.6 1151.7,889.7 1148.9,900.4C1147.4,905.8 1140.4,921.6 1137,927C1135.5,929.5 1133.4,934 1132.5,937C1131.5,940 1128.3,945.7 1125.5,949.5C1119.1,958 1102.1,974.6 1096.2,978C1093.8,979.4 1090.6,981.5 1089,982.8C1086.7,984.6 1085,985 1079.3,985C1066.7,985 1063,982 1063,971.9L1063,966.7L1058.1,971.3C1055.4,973.9 1051.9,976.2 1050.3,976.5C1043.2,977.9 1034.9,983.4 1024,993.7C1018,999.5 1013,1004.8 1013,1005.6C1013,1006.4 1010.9,1009.3 1008.4,1012C1003.8,1016.9 1003.6,1017 997.9,1017C992.8,1017 991.6,1016.6 988.4,1013.8Z" style="fill-rule:nonzero;"/>
        <path d="M830.8,1003.4C827.6,1002.7 823.3,1001.2 821.3,1000.1C819.2,999.1 811.9,996.1 805.1,993.6C798,990.9 791.3,987.7 789.4,986.1C787.7,984.5 782.8,981.6 778.7,979.6C773.8,977.3 768.9,973.8 764.8,969.9C761.3,966.6 757.2,962.9 755.5,961.8C751.5,958.9 723,930.2 720.7,926.6C716,919.5 702,903.3 688.8,889.9C680.9,881.8 673.2,873.6 671.6,871.6C667.7,866.4 651.3,850.4 639.8,840.4C634.5,835.8 627.5,829.1 624.4,825.5C620.1,820.7 618,819 616.1,819C614.7,819 610.6,817.6 607,815.9C603.4,814.2 597.4,811.9 593.5,810.8C589.7,809.8 583.6,808 580,807C574.7,805.5 570,805.1 555,805C533.9,805 531.7,804.4 531.2,799.1C530.9,796.1 531.6,795 536.7,789.8C545.5,780.8 553.5,776.1 566.5,772.3C571.2,771 577.3,770.5 594.3,770.3L616.1,769.9L623.1,773.6C626.9,775.6 633.1,780 636.8,783.4C640.5,786.8 646.1,791.5 649.3,793.9C652.4,796.3 655,798.7 655,799.2C655,799.7 664.4,809.7 675.9,821.3C687.3,833 698.4,844.4 700.5,846.8C702.6,849.1 706.9,853 710.2,855.5C713.5,858 718.4,862.8 721.1,866.3C723.7,869.7 727.8,874.9 730,877.7C732.2,880.6 736.5,884.5 739.5,886.5C742.6,888.4 745.9,891.5 747,893.2C751.6,901 764.1,915.7 770.8,921.2C774.7,924.4 778,926.9 778,926.5C778,925.4 764.8,909.6 757,901.5C752.9,897.1 747.9,891.3 746,888.5C744.2,885.8 738.3,878.8 733,873C727.6,867.2 721.9,860.2 720.1,857.4C718.4,854.6 713.3,848.7 708.8,844.3C704.2,840 697.4,832.7 693.5,828.1C689.7,823.6 684.4,818.3 681.9,816.4C679.3,814.5 676.1,811.5 674.7,809.7C672,806.1 625.2,759.6 618.5,753.8C616.3,751.9 612.9,749.3 611,748C609.1,746.7 604.6,742.9 601,739.5C597.4,736.1 592.9,732.5 591,731.5C589.1,730.5 584.6,727.7 581,725.2C574.3,720.5 559.6,713.6 547.6,709.4C541.5,707.3 538.9,707 527.1,707.1C508.7,707.2 503.9,708 498.4,711.8C496,713.6 493.3,715 492.5,715C491.8,715 488.4,717.5 485.2,720.5C479.5,725.7 479.2,726.3 478.4,732.2C477.9,735.7 477.6,739.5 477.7,740.7C478,744.2 482.8,750.5 487.3,753.1C491.1,755.2 493,755.6 506,756L520.5,756.5L520.4,767C520.4,776.7 520.1,778.1 517,785.5C514.1,792.1 512,795.1 505,802.4C500.3,807.3 495.1,811.9 493.3,812.6C489,814.5 471.3,814.4 461.5,812.5C444.8,809.3 428.1,797.4 421.3,783.9C416.8,774.9 412.1,757.9 411.3,748.3C410.4,736 413.3,713.4 418.2,694.2C418.8,691.8 422.6,684.3 426.6,677.5C432.8,667.2 435.4,663.9 443.2,656.6C448.2,651.9 452.8,648 453.4,648C453.9,648 455.5,646.9 456.9,645.6C458.4,644.3 461.8,642 464.5,640.5C471.4,636.7 473.1,635.8 476.3,633.6C478.3,632.2 483.4,631.3 496.3,629.9C505.7,628.9 513.9,628 514.3,628C516.1,628 526.9,616.7 528.6,613.2C529.7,610.8 530.4,607 530.4,602.4C530.5,596 530.9,594.8 534.4,589C537.3,584.4 538.4,581.3 538.7,577.6C539.5,567.4 541.8,562 548.8,554.1C552.4,550.1 556.1,546.6 556.9,546.2C557.8,545.9 562.2,542.2 566.6,537.8C571.8,532.8 575.6,530 577,530C578.2,530 580.5,528.9 582.2,527.5C583.8,526.1 586,525 587,525C588,525 591.5,523.2 594.8,521C598.1,518.8 601.5,517 602.4,517C603.3,517 606.4,515.8 609.3,514.4C612.5,512.8 617.7,511.5 623,510.9C627.7,510.3 632.3,509.4 633.2,508.9C635.5,507.7 664.3,507.8 669.5,509C671.9,509.5 674.6,511.1 676.3,513C678.6,515.6 679,516.9 679,521.8C679,527.4 678.8,527.7 674.2,532.3C671.1,535.4 668.3,537.2 666,537.6C660.3,538.6 652.6,541.2 650.9,542.6C650.1,543.4 648.9,544 648.4,544C646.3,544 636,555.8 633.1,561.5C630.5,566.5 629.9,569.4 629,578.9C628.4,585.2 627.7,590.6 627.5,591.1C627.2,591.5 627.4,599 627.9,607.7C628.8,622.6 629.1,624.2 633.3,636.2C635.7,643.1 639.1,651.1 640.9,653.8C647,663.4 660.2,673.9 666.2,674C667.1,674 670,675.1 672.6,676.5C675.7,678.1 678.9,679 682,679C686.4,679 687,678.7 692.6,672.8C696.8,668.4 700,663.7 703.2,657C707.5,648.2 708.9,646.5 721.3,634.3C728.6,627 735.3,621 736.2,621C737,621 738.7,619.9 740,618.5C741.3,617.1 742.9,616 743.5,616C745.3,616 765.3,606.1 767.5,604C769.5,602.3 772.9,601.5 783.9,600.4C790.2,599.7 792,601.1 792,606.7C792,610.9 790.3,615 785.8,621.6C781.8,627.5 775.4,642.1 774.4,647.7C773.7,651.8 771.7,656.1 768.8,660C764.8,665.5 757.9,685.5 754.9,700.5C753.3,708.8 751.5,717.1 751,719C748.8,727.6 747.2,745.6 748.2,752.5C748.7,756.4 748.8,765 748.4,771.6C747.7,785.4 748.9,792.3 754,803.3C756.6,808.8 760.6,821.3 765.6,839.4C766.3,842.1 768.2,845.8 769.6,847.7C771.1,849.7 773.1,853.5 774.2,856.3C775.3,859.1 777,862.6 778.1,864.1C779.1,865.6 780.5,869.1 781.1,872C781.7,874.9 783.4,878.5 784.9,880.3C786.4,882.1 790.2,886.9 793.3,891C796.4,895.1 799.9,899.6 801,901L803.1,903.5L801.9,901C801.3,899.6 799.9,897.4 798.9,896C796.9,893 794,882.6 794,878.1C794,876.3 792.8,872.6 791.4,869.8C789.4,865.8 788.5,861.8 787.4,851.6C782.6,808.1 783.1,775.6 789.1,732C789.6,727.9 790.1,721.5 790,717.9C789.9,713.6 790.5,709.7 791.8,706.4C792.9,703.7 794,698.6 794.4,695C794.8,691.3 796.5,685.4 798.2,681.5C800.8,675.7 801.4,672.6 802.1,663C803,649.8 802.9,650.2 811.5,632.6C816.6,622.3 818.2,617.9 819,612C819.6,607.9 821.2,602.1 822.6,599C824,596 826.5,589.5 828.2,584.5C831.1,575.9 831.2,575.1 830.7,563C829.6,538.2 828.7,533.9 822.8,522.2C818.1,512.9 816.8,511.2 811.6,507.3C808.4,504.9 805.4,503 804.9,503C804.5,503 802.5,501.6 800.5,499.9L796.9,496.7L786.3,497.3C776.5,497.9 775.5,498.1 772.8,500.7C770,503.4 769.5,503.5 759.1,503.5C749,503.5 748.1,503.3 744.1,500.7C737.6,496.4 735.7,491.2 735.2,476.5C734.7,463.6 736.2,450.9 738.5,447.3C740.1,444.9 752.5,434.6 757.4,431.6C767.3,425.6 800.7,422.3 816,425.8C823.8,427.6 833.6,432.6 839.3,437.8C842.4,440.6 845.8,443.3 846.8,443.9C849.5,445.3 855.2,455.8 859.5,466.9C864.6,480.4 866.3,491.5 866.4,511.7C866.5,526.6 866.7,529.2 868.2,530.7C869.6,532.1 872.3,532.5 882.1,532.8C890.2,533.1 894.5,532.9 895.3,532.1C895.9,531.5 897.2,531 898.1,531C899,531 900.3,530.3 901,529.5C902.8,527.3 908.3,527.7 911.4,530.1C913.9,532.1 914,532.5 914,543C914,556.5 911.6,569.4 906,585.4C901.2,599.2 899.4,603 893.1,612.5C884.9,624.9 876.1,640.2 870.3,652C867.2,658.3 863.4,665.1 861.8,667C860.3,668.9 859,670.9 859,671.5C859,672 856.3,677.9 853,684.5C849.7,691.1 845,701.9 842.5,708.5C835.1,727.7 824,772.1 824,782.4C824,785.7 823.4,792 822.6,796.4C821.1,804.7 819.5,831.2 819.8,841C819.9,844 820.5,853.7 821.1,862.5C823.5,896.3 823.6,893.7 819.2,900C815.5,905.3 815.2,905.5 810.9,905.4C808.5,905.4 805.7,905 804.7,904.6C803,903.8 803.1,904.3 805.3,908.6C806.7,911.3 809,914.6 810.5,916C812,917.4 814.6,920.3 816.1,922.4C818.6,925.8 819,927.2 819,933C819,942.5 817.1,944.8 808.7,945.2L802.5,945.5L814.8,955.5C821.6,961 828.8,966.4 830.8,967.4C832.8,968.4 835.9,970.3 837.5,971.6C839.2,972.8 844.4,975.7 849.2,978C853.9,980.3 859.4,983.7 861.4,985.5C864.7,988.5 865,989.2 865,994.3C865,998.3 864.5,1000.4 862.9,1002.4C860.9,1005 860.7,1005 848.7,1004.9C842,1004.9 833.9,1004.2 830.8,1003.4Z" style="fill-rule:nonzero;"/>
        <path d="M1134.2,1003.4C1132.6,1002.3 1132,1000.9 1132,998.1C1132,994.7 1132.7,993.7 1138.9,988.2C1142.6,984.9 1147,981.8 1148.6,981.4C1150.2,981 1154.2,978.7 1157.5,976.3C1160.7,973.9 1164.4,972 1165.5,972C1166.7,972 1168.9,970.6 1170.6,968.9C1172.2,967.2 1175.2,964.7 1177.3,963.4C1179.4,962 1184.4,957.8 1188.4,954C1192.4,950.1 1197.2,946.4 1199.1,945.6C1202.6,944.1 1231.8,915.1 1240.3,904.5C1247,896.3 1308.2,833 1309.5,833C1310.1,833 1318.2,825.4 1327.5,816C1336.8,806.7 1345,799 1345.6,799C1346.3,799 1349,797.2 1351.6,795C1363.6,785.1 1370.6,780 1372.2,780C1373.1,780 1374.2,779.5 1374.6,778.9C1374.9,778.3 1378,776.6 1381.4,775C1388.4,771.9 1404.5,770 1424,770C1434.5,770 1435.2,770.1 1442.7,773.7C1448.2,776.3 1452.5,779.3 1457.3,784L1464,790.6L1464,796.6C1464,806.5 1463.6,806.6 1439.5,807.3C1419.9,807.8 1419.3,807.9 1408,811.5C1401.7,813.6 1393.1,816.7 1389,818.6C1384.9,820.4 1380.2,822.2 1378.5,822.6C1374.6,823.5 1359.4,837.7 1320,877C1291.4,905.6 1279.2,919.1 1273.3,929C1270,934.3 1228.3,975.2 1221.9,979.3C1218.8,981.3 1215.1,983.2 1213.7,983.5C1212.3,983.9 1209.3,985.7 1207.1,987.6C1204.9,989.5 1200.7,991.9 1197.8,993C1194.9,994 1188.9,996.3 1184.5,998C1166.3,1005.2 1167.1,1005 1151.2,1005C1139.5,1005 1136,1004.7 1134.2,1003.4Z" style="fill-rule:nonzero;"/>
        <path d="M1178.9,943.1C1177,941.6 1176.5,940.1 1176.2,934.8C1175.7,927.1 1177,924 1184,916.6C1188.8,911.4 1195,900.9 1191.1,904.4C1187.8,907.4 1177,905.5 1177,902C1177,901.5 1175.9,899.4 1174.5,897.4C1171.7,893.3 1171.1,885.5 1173,877.7C1176.1,865 1175.8,816.3 1172.6,794.5C1171.7,789 1170.8,781.1 1170.5,777C1170.2,772.9 1168.8,765 1167.4,759.5C1166,754 1164.3,747 1163.5,744C1159.4,727.2 1156.9,718.8 1154.3,712.5C1152.6,708.7 1150.7,703.7 1150,701.5C1148,695.1 1134.9,668.8 1131.9,665C1130.4,663.1 1128.2,659 1127,656C1125.8,653 1123.5,648 1121.8,645C1115.4,633.7 1105.9,617.8 1102.1,612.2C1090.2,594.7 1081.1,564.2 1081,541.9C1081,536.5 1081.4,535 1083,533.5C1085.9,530.9 1094.4,530.5 1110.9,532L1124.4,533.3L1126.7,530.6C1128.9,528 1129,527.1 1129,512.3C1129,488.3 1132.4,471.8 1140.8,455.3C1143.2,450.6 1150.2,444 1152.8,444C1153.8,444 1157.1,441.9 1160.1,439.3C1166.4,433.9 1172.2,431.1 1176.8,431C1178.7,431 1181.3,430.1 1182.7,429C1184.1,427.9 1186.1,427 1187.1,427C1188.1,427 1189.2,426.6 1189.5,426C1189.9,425.4 1198.1,425 1210.9,425C1231.2,425 1231.7,425 1236.9,427.6C1243.4,430.9 1253.9,441.1 1256.7,447C1259.4,452.5 1261.4,469.8 1260.5,479.1C1259.5,490.1 1257.5,495.9 1253.3,500.2L1249.6,504L1241,504C1233,504 1232.1,503.7 1225.3,500L1218.1,496.1L1209.4,497C1201.1,497.9 1200.5,498.1 1196.6,501.8C1194.3,504 1191.3,506 1189.8,506.4C1188.4,506.7 1185.8,508.1 1184.2,509.5C1182.5,510.9 1180.8,512 1180.3,512C1178.6,512 1175.4,516.5 1171.2,525C1166.7,534.1 1165.6,540.4 1164.3,563.7C1163.7,575.2 1165,581.2 1171.7,596.4C1173.8,601.1 1175.6,607 1176.1,611.3C1176.8,617 1178.5,621.4 1184.6,634.1L1192.2,649.9L1193.5,663.2C1194.5,673.3 1195.4,677.8 1197.3,682.1C1198.7,685.2 1200.3,691.2 1200.9,695.4C1201.5,699.7 1202.5,704.1 1203.2,705.3C1203.8,706.5 1204.7,711.6 1205.1,716.5C1206.3,731.4 1208,747.8 1209.7,760.5C1211.8,776.4 1211.8,823.6 1209.6,837.2C1208.8,842.3 1207.8,850.3 1207.5,855C1207,861.2 1206.1,865.3 1204,870C1202.4,873.7 1200.9,879.1 1200.6,882.5C1200.3,886.7 1199,890.7 1196.5,895.5C1192.8,902.8 1193.5,902.3 1201,892.4C1203.4,889.2 1207.1,884.5 1209.1,882C1211.4,879.2 1213.4,875.2 1214.3,871.8C1215.1,868.7 1216.6,864.9 1217.7,863.3C1218.8,861.8 1220.4,858.3 1221.4,855.7C1222.4,853.1 1224.3,849.6 1225.7,848C1227.1,846.3 1228.8,842.9 1229.5,840.2C1234,823.8 1239.2,807.6 1241.3,803.4C1242.7,800.7 1244.3,796.7 1245,794.5C1246.6,789.3 1248.1,744.4 1246.9,736.5C1246.5,733.2 1245.6,727.8 1245.2,724.5C1240.9,696.2 1233.2,670.4 1225.6,658.9C1223.7,655.9 1221.5,651 1220.9,648C1219.3,640.4 1214,628.2 1209.1,620.9C1204.2,613.6 1203.6,608.6 1207.3,605.3C1209.1,603.6 1211.4,603.1 1219.7,602.5L1230,601.8L1242.6,607.9C1256.7,614.8 1260.4,617.4 1272.4,628.7C1281.8,637.7 1283.7,640.3 1292.1,657.1C1297.7,668.2 1298.6,669.4 1304.7,674L1311.3,679L1319.7,679C1324.5,679 1329.4,678.4 1331.3,677.6C1336.8,675.3 1352.2,658.3 1356.3,649.9C1364.6,632.8 1366.1,627.1 1367.2,608.1C1367.8,596.2 1367.8,589.3 1367.1,585.8C1366.5,583.1 1366,578.3 1366,575C1366,569.9 1365.3,567.8 1360.5,558.3C1357.5,552.4 1354.4,546.8 1353.8,545.9C1350.7,542.1 1342,537.3 1335.9,536.1C1327,534.3 1319.3,531.2 1317.5,528.7C1316.7,527.5 1316,524.7 1316,522.5C1316,519.3 1316.6,517.8 1318.8,515.8C1321.6,513.2 1329.9,511 1337.1,511C1339.2,511 1341.2,510.6 1341.5,510C1341.9,509.4 1349.6,509 1361.3,509L1380.6,509L1388.8,512.5C1393.4,514.4 1398.5,517 1400.3,518.3C1402.1,519.6 1407.3,522.2 1412,524.1C1417.9,526.5 1422.4,529.2 1427,533.1C1430.6,536.1 1435.5,539.9 1437.8,541.4C1441.2,543.5 1442.8,545.5 1445,550.3C1446.5,553.7 1448.9,557.5 1450.3,558.6C1453.1,561 1455.7,569 1456.3,576.7C1456.6,580.6 1457.7,583.6 1460.6,588.2C1464,593.8 1464.5,595.3 1464.7,601.3C1464.8,605.1 1465.4,609.6 1466,611.5C1467.6,616.2 1474,621.8 1478.7,622.4C1480.8,622.8 1484.8,623.5 1487.5,624.1C1490.3,624.6 1496.3,625.5 1501,626C1516.8,627.7 1517.8,627.9 1522.4,631.8C1524.9,633.8 1531.2,638.2 1536.5,641.4C1541.7,644.7 1547.1,648.8 1548.4,650.4C1549.7,652.1 1552.9,655.7 1555.4,658.4C1560,663.3 1573.9,684.9 1576,690.4C1576.6,692 1578.5,699.9 1580.2,707.9C1583,720.9 1583.3,724.4 1583.4,740C1583.5,756.6 1583.4,757.9 1580.8,765.5C1579.3,769.9 1577.6,775.3 1577,777.5C1575.5,783.6 1569,792.7 1560.2,801C1546.3,814 1547.7,813.5 1531.8,813.8C1519.7,814.1 1517,813.9 1510.3,811.9C1501.3,809.2 1490.1,802.2 1484.6,795.9C1478.7,789 1474.8,778.3 1474.2,767.3L1473.8,758.2L1489.3,757.8L1504.9,757.5L1509,753.5C1511.3,751.3 1514.3,747.5 1515.7,745.2L1518.3,740.8L1516.7,731.7L1515.1,722.5L1509.3,717.3C1506.1,714.4 1500.5,710.5 1496.9,708.5C1490.8,705.3 1489.4,705 1482.2,705C1477.7,705 1473.8,705.5 1473.5,706C1473.2,706.6 1471,707 1468.7,707C1466.4,707.1 1462.7,707.7 1460.5,708.5C1458.3,709.3 1455.5,710 1454.2,710C1451.7,710 1443.5,713.2 1432.5,718.5C1428.7,720.4 1424.3,722.2 1422.7,722.5C1421.2,722.8 1417.5,725.3 1414.5,728C1408.8,733.2 1404.2,736 1401.4,736C1400.5,736 1396.1,739.5 1391.6,743.8C1387.2,748 1381.9,752.6 1380,754C1373.9,758.2 1278,853.3 1274.6,858.5C1272.7,861.3 1266.8,868.5 1261.4,874.5C1255.9,880.6 1250.4,887.1 1249,889C1247.7,890.9 1243.4,895.9 1239.5,900C1235.5,904.1 1228.7,912 1224.3,917.5C1213.7,930.6 1203.4,940.5 1197.5,943C1191.3,945.6 1182.1,945.7 1178.9,943.1Z" style="fill-rule:nonzero;"/>
        <path d="M960.2,904.5C958.1,903.6 956.4,901.8 955.4,899.5C953.3,894.4 947.6,885.7 942.7,880.2C940.3,877.5 937.9,874.1 937.2,872.4C932.5,860.3 928.5,848.6 927.4,843.5C925.5,834.9 925.6,821.5 927.7,816C930.2,809 932.3,807.3 938.9,806.6C944.2,806 945,805.5 950,800.5C953,797.5 956.1,795 956.9,795C957.8,795 960.8,792.7 963.6,789.9C968,785.5 969.6,784.6 975.1,783.4C978.6,782.7 984.1,782.1 987.2,782C991.9,782 993.1,782.4 994,783.9C994.5,785 995,791.3 995,798C995,808.2 994.6,811.3 992.6,817.3C991.3,821.3 988.8,829.9 987,836.5C985.3,843.1 983.2,849.4 982.5,850.6C981.3,852.4 979.1,862.9 976.1,881.1C975.5,884.8 975,891.3 975,895.7C975,900.5 974.5,904.1 973.8,904.8C972.2,906.4 964.3,906.2 960.2,904.5Z" style="fill-rule:nonzero;"/>
        <path d="M1021.2,904.8C1020.4,904 1020,900.2 1020,894.3C1020,889.3 1019.6,882.9 1019.1,880.3C1018.6,877.7 1017.4,870.8 1016.4,865C1015.5,859.2 1013.9,852.9 1012.9,851C1012,849 1009.6,841.6 1007.6,834.5C1005.7,827.3 1003.2,818.4 1002,814.5C1000.6,809.5 1000,804.7 1000,797.4C1000,783.7 999.7,784 1017.5,784L1031.3,784L1038.7,790.8C1049.6,800.7 1051.8,802 1056.7,802C1062.1,802 1063.7,803.7 1066.7,812.7C1071.5,827.5 1070.5,839.6 1062.4,861C1057.8,873.2 1056,876.3 1048,886.5C1045.9,889.2 1042.9,893.7 1041.4,896.5C1036.8,905 1035.5,906 1028.5,906C1025.1,906 1021.9,905.5 1021.2,904.8Z" style="fill-rule:nonzero;"/>
        <path d="M1133.5,756.8C1132.4,756.2 1127.7,752 1123,747.5C1114,738.8 1104.7,732.1 1099.1,730.2C1094.6,728.6 1083,728.7 1075.5,730.4C1068.8,731.8 1065.3,733.7 1059.8,738.8L1056.1,742.3L1044.3,741.6C1033.9,741 1031.6,740.5 1025,737.5C1014.4,732.7 995.3,730.1 992.3,733.1C991.8,733.6 988.2,734.5 984.4,735.1C980.6,735.6 974.5,737.5 970.8,739.2C964.3,742.2 963.7,742.2 953.1,741.8C941.2,741.3 942.7,741.9 929.6,732.5C924.9,729.1 924.6,729 915.2,729C908.4,729 905.2,729.4 904.1,730.4C903.2,731.2 899.4,732.8 895.6,733.9C888.2,736.2 884.4,738.8 872.4,750.3L865.3,757L858.3,757C849,757 848.5,756.4 849.3,745.2C850.1,734.6 853.1,724.9 858.7,714.6C859.6,713 874,698.2 890.7,681.6C925.2,647.6 923.9,648.5 941.7,647C949.8,646.3 952.6,645.6 955.7,643.7C961,640.2 983.8,616.7 988.5,609.8L992.3,604L1002.9,604L1008.7,612.2C1013,618.1 1016.3,621.6 1020.8,624.6C1024.2,626.9 1030.1,631.6 1033.9,635.2L1040.7,641.7L1051.1,642.4C1056.9,642.8 1064.2,644 1067.7,645.1C1072.9,646.8 1074.7,648 1079.3,653.3C1082.2,656.7 1085.5,660.7 1086.5,662.2C1088.2,665 1093.5,669.5 1109.9,682.2C1130.8,698.3 1146,725.9 1146,747.7C1146,754.8 1145.7,756.1 1144.1,757C1141.6,758.3 1136,758.2 1133.5,756.8Z" style="fill-rule:nonzero;"/>
        <path d="M434.4,620C433.2,619.5 431.5,618.1 430.6,616.8C428.3,613.5 428.5,598.8 431,588.2C432.1,583.6 433,578.7 433,577.3C433,575.2 436.4,571.2 448.3,559.3C456.6,550.8 464.9,543.3 466.5,542.5C468.2,541.7 473.3,539.8 478,538.3C482.7,536.7 487.6,534.7 489,533.8C494.6,530 499.9,529 514.1,529L528,529L528,535.2C528,540.4 527.4,542.4 524.4,547.9C518,559.5 513,573.7 512.1,583C510.9,593.6 510.1,595.6 505.3,600.1C499.8,605.3 493.4,608.7 486.6,609.9C483.4,610.5 480.1,611.5 479.4,612C478.7,612.6 475.1,613.6 471.5,614.2C467.8,614.7 461.8,616.4 458.1,617.8C451.1,620.5 438.4,621.7 434.4,620Z" style="fill-rule:nonzero;"/>
        <path d="M1550,620.3C1549.2,620 1545.4,618.4 1541.5,616.7C1537.7,615.1 1530.7,612.6 1526,611.4C1521.3,610.1 1515,608.4 1512,607.5C1509,606.7 1505.9,606 1505,606C1504.2,606 1501.9,604.9 1500,603.6C1498.1,602.3 1495.1,601 1493.3,600.6C1486.8,599.1 1483,591.9 1483,581C1483,575.7 1480,567.1 1472.9,552.1C1468.3,542.5 1467,538.7 1467,535.1C1467,529.3 1468.2,528 1473.6,528C1476,528 1478.2,527.6 1478.5,527C1478.8,526.5 1482.7,526 1487,526C1493.4,526 1496.1,526.5 1500.7,528.6C1503.9,530 1510.3,532.2 1515,533.6C1527.1,537.1 1529.7,538.7 1537,547.3C1540.6,551.5 1545.3,556.2 1547.5,557.8C1554.1,562.5 1560.9,570.7 1561.6,574.8C1561.9,576.8 1563,582.2 1564.1,586.8C1566.7,598.4 1566.7,613.3 1564,617.8C1562.2,620.8 1561.7,621 1556.8,620.9C1553.9,620.9 1550.8,620.6 1550,620.3Z" style="fill-rule:nonzero;"/>
        <path d="M953.9,573.4C951.7,570.7 951.7,560.2 953.9,547C959.2,514.4 958,503.3 945.3,472.6C943,466.8 941.5,464.9 936,460.4C932.5,457.4 929,455 928.3,455C926,455 925.9,457 927.9,461.6C929.4,464.8 930,468.4 930,473.2C930,480.6 929.2,482.9 925.2,487.3C921.5,491.2 913.7,491.1 901.5,486.9C889.2,482.6 887.2,480.3 882.4,465.8C878.8,454.7 878.7,454.2 878.5,437.5C878.3,425.3 877.8,418.8 876.6,414.6C874.5,406.9 867.9,393 863.7,387.1C861.9,384.6 857.7,377.1 854.5,370.5C849.9,361.2 848.5,357.2 848.2,352.7C847.8,347.4 848,346.6 850.6,343.9C853.2,341.1 853.8,341 861.8,341L870.2,341L876,346.7C880.3,350.9 883.8,353.2 889.6,355.6C894,357.4 898.4,358.9 899.6,359C901.6,359 912.8,362.1 918.3,364.2C919.8,364.8 922.5,366.8 924.3,368.7C926.1,370.6 930.2,373.4 933.5,375C940.1,378.1 948.8,387 952.3,394.3C953.4,396.6 955.7,400.1 957.5,402.1C959.3,404.1 961.7,408.2 962.8,411.3C964,414.3 966.4,419.2 968.3,422.2C973.5,430.3 979.4,442.5 982.9,452.4C985.3,459.1 986.3,464.3 987.1,473.9C987.7,480.8 988.9,488 989.6,489.9C991.5,494.4 991.4,509.4 989.5,516.7C988.7,519.8 988,524.5 988,527C988,529.5 987.1,534.8 986,538.8C983.5,547.6 974.2,566.5 969.9,571.4C967,574.7 966.4,575 961,575C956.9,575 954.9,574.5 953.9,573.4Z" style="fill-rule:nonzero;"/>
        <path d="M1026.3,571.6C1018.3,564.4 1007.1,537.2 1007,525C1007,522.5 1006.3,518 1005.5,515C1003.5,507.6 1003.6,495 1005.6,490.2C1006.5,488.2 1007.6,481.3 1008.1,475C1009.4,457.7 1013.9,444.7 1025.1,425.5C1028.3,419.9 1031.6,413.5 1032.5,411.1C1035.2,403.3 1056.4,380 1060.8,380C1061.9,380 1065.9,377.1 1069.8,373.4C1076,367.8 1077.8,366.6 1083.9,364.9C1087.8,363.9 1092.7,363 1094.8,363C1098.8,363 1106.6,359.6 1110.3,356.2C1113.1,353.7 1116.4,352 1118.6,352C1119.5,352 1122.7,349.8 1125.6,347L1130.9,342L1148,342L1148,347.3C1148,353.6 1145.6,362.4 1142.8,366.3C1141.7,367.8 1139.8,371.8 1138.4,375.1C1137.1,378.5 1134.9,382.7 1133.6,384.5C1126.8,393.4 1120.3,407.5 1117.9,418.5C1117.2,422.1 1116.8,429.8 1116.9,438.1C1117.2,452.4 1116.7,455.3 1111.3,470.8C1108.4,478.9 1102.6,486.5 1097.3,488.6C1095.3,489.5 1090.2,490 1083.7,490C1074.8,490 1072.9,489.7 1070.8,488C1064.5,483.1 1063,470.8 1067.5,461.2C1068.9,458.2 1070,455.6 1070,455.3C1070,454.3 1063,458.9 1057.7,463.6C1051.5,468.9 1050.5,470.8 1043.6,489C1041.3,495.1 1040,500.8 1039.1,509C1037.9,519.6 1038,521.7 1040,536C1043.2,557.7 1043.7,569.4 1041.6,572.5C1040.2,574.6 1039.2,575 1035,575C1030.7,575 1029.5,574.5 1026.3,571.6Z" style="fill-rule:nonzero;"/>
        <path d="M987.1,424.4C980.9,418.8 979,413.4 979,401.2C979,388.1 981.1,381.6 987.3,375.2L992.5,369.9L1000,370.2C1007.2,370.5 1007.5,370.6 1009.7,373.9C1013.4,379.3 1015.2,386.7 1015.8,397.9C1016.4,412.2 1015.1,417.6 1009.3,424L1004.8,429L998.5,429C992.4,429 992,428.8 987.1,424.4Z" style="fill-rule:nonzero;"/>
        <path d="M914.4,352C913.3,351.6 911.2,349.7 909.8,347.7C906.7,343.7 901.5,341 896.9,341C894.3,341 892.8,340 889.1,336C886.6,333.3 883.1,330.6 881.4,330C878,328.8 867.2,316.7 860.9,306.9C858.9,303.8 856.5,301 855.5,300.7C854.6,300.3 850,300 845.3,300L836.8,300L830.3,293.8C822.7,286.5 822.3,285.7 821,278.9C820.4,276.1 818.9,271.2 817.6,268.1C813.7,259.3 811.7,244 811.6,223.8C811.5,207.4 811.6,206 813.6,203.3C815.5,200.8 816.4,200.5 822.3,200.2L828.8,199.9L831.1,207.2C836.7,225 860,250 880.5,260.3C886.6,263.4 888.4,264 889.5,263C890.3,262.3 891,261.2 891,260.6C891,259.9 892.5,258 894.3,256.2C897.5,253.1 897.8,253 906.8,253C914.8,253 916.7,253.4 922.2,255.9C925.7,257.5 930.7,259.6 933.3,260.5C943.5,264.1 960.9,277.8 969.5,289C974.8,295.9 986.3,319.9 988.6,329C990.4,336 990.1,346 988.1,349.8C986.9,352 986.8,352 966.6,351.4C951.7,350.9 946.1,351 945.6,351.8C944.8,353.2 917.7,353.4 914.4,352Z" style="fill-rule:nonzero;"/>
        <path d="M1058.5,351.6C1055.8,350.9 1052.4,349.8 1051.2,349.1C1049.1,348 1048.5,348.1 1046.6,349.9C1044.5,351.9 1043.2,352 1026.7,352L1009,352L1007.4,349.5C1004.8,345.5 1005.8,329.2 1009.2,321.5C1021.1,294.1 1019.5,296.8 1031.1,285.5C1037,279.7 1042.6,275 1043.4,275C1044.2,275 1048,273 1051.7,270.6C1055.4,268.2 1060.5,265.5 1063,264.7C1065.5,263.8 1069.3,262.2 1071.5,261.1C1073.6,259.9 1076.1,259 1077,259C1077.9,259 1080.3,258.1 1082.5,257C1085.5,255.4 1088.4,255 1095.2,255L1104,255L1104,257.9C1104,262 1106.4,264 1111.1,264C1116.8,264 1120.6,261.2 1137.1,244.3C1152.7,228.5 1157.6,222.4 1161.5,213.8C1162.8,210.8 1165.3,207.2 1166.8,205.7C1169.5,203.1 1170.3,202.9 1176.1,203.2L1182.4,203.5L1183.3,207.5C1184.6,213.2 1183.4,245 1181.5,255C1180.6,259.7 1178.8,266 1177.6,269C1176.3,272 1174.9,276.3 1174.5,278.5C1173.4,284.6 1171.4,287.9 1163.7,295.8L1156.6,303L1140.5,303L1131.5,312.7C1126.6,318 1117.6,327.2 1111.5,333.2C1101.4,343.1 1100.1,344 1095.7,344.6C1092.2,345.1 1089.9,346.2 1086.6,349.1L1082.2,353L1072.8,352.9C1067.7,352.9 1061.3,352.3 1058.5,351.6Z" style="fill-rule:nonzero;"/>
        <path d="M988,294C980.2,291.1 977.8,288.1 974,276.5C969.7,263.3 964.7,253.6 961.2,252.1C957.2,250.2 942.6,240.4 941,238.5C940.2,237.6 936.5,235.2 932.6,233.3C912.5,223.2 894,203.5 894,192.2C894,187.1 895.4,186 901.9,186C906.3,186 909,186.8 915,189.8C922.2,193.4 923,193.5 935.5,194C942.7,194.3 949.7,195.1 951.1,195.7C953.5,196.7 954.1,196.5 956.6,193.9L959.3,191L958.2,183.3C957.5,179 957,172.9 957,169.8C957,166.7 956.3,161.5 955.5,158.3C954.5,154.5 954,147.8 954,138.4L954,124.3L957.9,118.4C961.8,112.4 972.4,101.7 981.5,94.4C990.5,87.3 991.2,87 1000.4,87L1008.8,87L1018.3,95.5C1024.6,101.1 1029.7,106.8 1033.3,112.2C1042,125.1 1042.3,126.3 1041.7,141.5C1041.4,148.7 1040.6,156.1 1040,158C1039.3,159.9 1038.3,166.9 1037.8,173.5C1036.3,193.3 1036.2,192 1039.3,194.4C1042.5,196.8 1046.5,197 1063.5,195.7C1077.5,194.6 1081.1,193.5 1085.6,188.9C1089.2,185.3 1089.8,185 1095.2,185L1101,185L1101,191.1C1101,196.3 1100.5,198 1097.1,203.8C1091.7,213 1073.8,230.4 1064.5,235.5C1060.7,237.6 1055.6,241 1053.4,242.9C1051.1,244.9 1044.9,248.7 1039.6,251.3C1030.3,255.9 1029.9,256.3 1027.1,261.8C1025.6,264.9 1022.8,272 1021,277.4C1018.5,285 1016.8,288.4 1013.7,291.7L1009.7,296L1001.6,296C996.1,295.9 991.7,295.3 988,294Z" style="fill-rule:nonzero;"/>
    </g>
</svg>
